<svg width="105" height="94" viewBox="0 0 105 94" fill="none" xmlns="http://www.w3.org/2000/svg">
<path d="M31.4175 68.6393L65.5907 47.4135H41.8899L31.4175 68.6393Z" fill="#9E78B5"/>
<path d="M93.4254 56.2346L71.9294 12.4047C68.3467 4.41056 62.8349 0 54.8427 0C47.6774 0 41.6144 4.68622 38.5829 10.4751L10.4727 68.6393H27.5593L50.7089 21.7771C51.5356 20.6745 52.9136 19.5718 54.5671 19.5718C56.2207 19.5718 57.8742 20.6745 58.701 22.0528L77.9923 62.8504C79.3703 66.1584 82.1262 68.6393 85.9845 68.6393C90.6695 68.6393 94.2522 64.7801 94.2522 60.3695C94.5278 58.7155 94.2522 57.3372 93.4254 56.2346Z" fill="#783F98"/>
<path d="M7.44095 76.3578H10.1969L17.6378 93.4487H14.3307L12.6772 89.3138H4.68504L3.0315 93.4487H0L7.44095 76.3578ZM11.8504 86.8329L8.8189 79.9414L5.7874 86.5572H11.8504V86.8329Z" fill="#783F98"/>
<path d="M20.3936 76.6335H27.0077C30.866 76.6335 33.3463 78.8387 33.3463 82.4223C33.3463 86.2815 30.3148 88.2112 26.7321 88.2112H23.4251V93.7244H20.3936V76.6335ZM27.0077 85.4546C29.2125 85.4546 30.5904 84.3519 30.5904 82.4223C30.5904 80.4927 29.2125 79.3901 27.0077 79.3901H23.4251V85.4546H27.0077Z" fill="#783F98"/>
<path d="M35.8267 85.1789C35.8267 80.4927 39.4093 76.3578 44.6456 76.3578C49.8818 76.3578 53.4645 80.217 53.4645 85.1789C53.4645 89.8651 49.8818 94 44.6456 94C39.4093 93.7244 35.8267 89.8651 35.8267 85.1789ZM50.433 85.1789C50.433 81.871 47.9526 79.1144 44.6456 79.1144C41.3385 79.1144 38.8582 81.871 38.8582 85.1789C38.8582 88.4868 41.3385 91.2434 44.6456 91.2434C48.2282 91.2434 50.433 88.4868 50.433 85.1789Z" fill="#783F98"/>
<path d="M56.4961 85.1789C56.4961 80.4927 60.0788 76.3578 65.315 76.3578C68.3465 76.3578 70 77.1848 71.9292 78.5631L70 80.7683C68.6221 79.6657 67.5197 79.1144 65.315 79.1144C62.2835 79.1144 59.8032 81.871 59.8032 85.1789C59.8032 88.7625 62.0079 91.2434 65.5906 91.2434C67.2441 91.2434 68.6221 90.6921 69.7244 89.8651V86.5572H65.315V84.0763H72.4803V91.2434C70.8268 92.6217 68.3465 93.7244 65.315 93.7244C60.0788 93.7244 56.4961 90.1408 56.4961 85.1789Z" fill="#783F98"/>
<path d="M76.063 76.6335H88.7402V79.3901H79.0945V83.8006H87.6378V86.2815H79.0945V90.9678H88.7402V93.7244H76.063V76.6335Z" fill="#783F98"/>
<path d="M92.3228 76.6335H104.724V79.3901H95.3542V83.8006H103.622V86.2815H95.3542V90.9678H105V93.7244H92.3228V76.6335Z" fill="#783F98"/>
</svg>
