<svg width="232" height="76" viewBox="0 0 232 76" fill="none" xmlns="http://www.w3.org/2000/svg">
<path fill-rule="evenodd" clip-rule="evenodd" d="M9.63388 69.0364C9.63388 69.5779 9.53309 70.0744 9.33532 70.5222C9.13375 70.9699 8.84153 71.3525 8.44853 71.6736C8.05932 71.9915 7.57884 72.2385 7.01089 72.4101C6.43913 72.5786 5.7837 72.666 5.03952 72.666C4.62813 72.666 4.25795 72.6337 3.92643 72.5691C3.59871 72.507 3.31283 72.4291 3.07259 72.3424C2.82918 72.2543 2.64092 72.1695 2.504 72.0954C2.36835 72.0175 2.2739 71.9554 2.21876 71.9104C2.16678 71.8617 2.12431 71.8135 2.09515 71.7673C2.06916 71.7192 2.04634 71.6609 2.03366 71.5855C2.02099 71.5146 2.01084 71.424 1.99817 71.3202C1.98485 71.2163 1.97852 71.0865 1.97852 70.9338C1.97852 70.7394 1.99817 70.6064 2.03366 70.5348C2.07233 70.4671 2.13128 70.4316 2.20608 70.4316C2.28024 70.4316 2.38737 70.474 2.52365 70.5545C2.66057 70.6387 2.83869 70.7331 3.06308 70.8464C3.28367 70.9566 3.55624 71.0542 3.87445 71.1352C4.19583 71.2163 4.57869 71.2587 5.0205 71.2587C5.4395 71.2587 5.82236 71.2068 6.16656 71.1029C6.51393 70.9991 6.80931 70.8496 7.05272 70.659C7.29613 70.4702 7.4882 70.2429 7.62448 69.9769C7.7576 69.7109 7.82542 69.4164 7.82542 69.0921C7.82542 68.7444 7.76394 68.4265 7.63716 68.1415C7.51038 67.8558 7.32212 67.6126 7.07237 67.4119C6.81946 67.2067 6.50759 67.0477 6.13423 66.935C5.76088 66.821 5.32857 66.7627 4.84175 66.7627H3.39397C3.31917 66.7627 3.25768 66.7532 3.21585 66.7298C3.17021 66.7076 3.13091 66.6721 3.09858 66.6202C3.06942 66.5708 3.0466 66.503 3.03329 66.4156C3.02061 66.3314 3.01428 66.2244 3.01428 66.0977C3.01428 65.978 3.02061 65.8773 3.03329 65.7931C3.0466 65.712 3.06942 65.6436 3.09858 65.5917C3.13091 65.5366 3.17021 65.4979 3.21838 65.472C3.26719 65.446 3.32234 65.4327 3.38446 65.4327H4.74477C5.16313 65.4327 5.54662 65.3871 5.89082 65.2902C6.23819 65.1965 6.53358 65.0565 6.77698 64.8716C7.02039 64.6898 7.20866 64.4625 7.34177 64.1939C7.47489 63.9248 7.54335 63.6163 7.54335 63.2661C7.54335 62.9868 7.49454 62.7309 7.40326 62.4972C7.31261 62.2635 7.17316 62.0659 6.9849 61.9038C6.7998 61.741 6.5659 61.615 6.29016 61.5276C6.01379 61.4396 5.68925 61.3946 5.31589 61.3946C4.91021 61.3946 4.54953 61.4364 4.23132 61.5244C3.91375 61.608 3.64055 61.7024 3.41362 61.8063C3.18606 61.9133 2.99146 62.0077 2.83235 62.0982C2.67642 62.1862 2.55598 62.2312 2.48182 62.2312C2.43618 62.2312 2.40385 62.2217 2.37786 62.2021C2.35187 62.1825 2.32905 62.1502 2.3094 62.1014C2.29038 62.0564 2.28024 61.9912 2.2739 61.9069C2.26756 61.8259 2.2644 61.7252 2.2644 61.6017C2.2644 61.5206 2.26756 61.4396 2.2739 61.3617C2.28024 61.2806 2.29038 61.2097 2.30623 61.1476C2.32271 61.083 2.34236 61.0247 2.36835 60.9728C2.39434 60.9177 2.42984 60.8658 2.48182 60.8138C2.53379 60.7651 2.6536 60.6903 2.84186 60.5903C3.03329 60.4927 3.26719 60.4015 3.54673 60.3173C3.82564 60.2299 4.14068 60.1583 4.49438 60.0969C4.84492 60.038 5.22461 60.0063 5.63093 60.0063C6.23819 60.0063 6.77065 60.0804 7.22133 60.2267C7.67646 60.3724 8.05615 60.577 8.36422 60.843C8.67292 61.109 8.89985 61.4301 9.04944 61.8031C9.19841 62.1761 9.2732 62.591 9.2732 63.0489C9.2732 63.4669 9.21172 63.8399 9.08811 64.1743C8.96514 64.5087 8.79589 64.7937 8.58164 65.0401C8.37056 65.2839 8.12081 65.4815 7.83556 65.6373C7.55285 65.7931 7.25113 65.9001 6.93292 65.9552V65.9843C7.31261 66.0293 7.66949 66.137 7.9972 66.3086C8.32872 66.4771 8.6146 66.6981 8.85484 66.9666C9.09445 67.2364 9.28651 67.5474 9.42597 67.8983C9.56542 68.2517 9.63388 68.631 9.63388 69.0364Z" fill="white"/>
<path fill-rule="evenodd" clip-rule="evenodd" d="M19.8224 69.7861C19.8224 70.2371 19.7381 70.6361 19.5657 70.9895C19.3939 71.3397 19.1403 71.6348 18.8063 71.8717C18.4684 72.1086 18.0501 72.2903 17.5499 72.4132C17.0498 72.5367 16.4654 72.5981 15.7998 72.5981C15.5919 72.5981 15.3878 72.5981 15.1925 72.5956C14.9948 72.5918 14.8033 72.5855 14.6214 72.5753C14.4363 72.5658 14.2544 72.5525 14.0725 72.5437C13.8944 72.5304 13.7124 72.5145 13.5369 72.4943C13.2839 72.4626 13.0957 72.3777 12.9752 72.2416C12.8554 72.1054 12.7939 71.9046 12.7939 71.638V64.2749C12.7939 64.0152 12.8523 63.8144 12.9689 63.6751C13.0887 63.5351 13.2675 63.4541 13.5083 63.4281C13.6731 63.4091 13.8487 63.3926 14.037 63.38C14.2221 63.3667 14.4135 63.3572 14.6119 63.347C14.8065 63.3375 15.0113 63.3312 15.2185 63.3242C15.4296 63.3179 15.6407 63.3147 15.8588 63.3147C16.4717 63.3147 17.0042 63.3635 17.4555 63.4667C17.9037 63.5681 18.2802 63.7169 18.5756 63.912C18.8741 64.1096 19.0953 64.3496 19.238 64.6352C19.3806 64.9202 19.4522 65.2477 19.4522 65.615C19.4522 66.0951 19.3223 66.5061 19.0662 66.8506C18.8095 67.1907 18.4329 67.4346 17.9296 67.5802C18.5597 67.7139 19.0301 67.9697 19.3483 68.3523C19.6633 68.7316 19.8224 69.2085 19.8224 69.7861ZM17.9296 65.8126C17.9296 65.6049 17.8941 65.4168 17.8162 65.2515C17.7414 65.0893 17.6146 64.9494 17.4397 64.836C17.2672 64.7195 17.0403 64.6352 16.7639 64.5763C16.4882 64.5212 16.1535 64.4921 15.7611 64.4921C15.4657 64.4921 15.1925 64.5022 14.9428 64.5149C14.6962 64.5314 14.4883 64.5504 14.3159 64.57V67.23H15.9133C16.5662 67.23 17.0657 67.1071 17.4137 66.8633C17.7579 66.6201 17.9296 66.2699 17.9296 65.8126ZM18.2155 69.8153C18.2155 69.5619 18.173 69.3384 18.0824 69.1433C17.9949 68.9527 17.8517 68.7905 17.6602 68.6639C17.4656 68.5372 17.2184 68.4435 16.9167 68.3782C16.615 68.3168 16.2606 68.2845 15.8486 68.2845H14.3159V71.3169C14.4363 71.3365 14.5631 71.3498 14.693 71.3587C14.8224 71.3688 14.9561 71.379 15.0924 71.3885C15.2287 71.398 15.365 71.4049 15.5012 71.4106C15.6375 71.4176 15.7611 71.4208 15.8746 71.4208C16.2866 71.4208 16.6403 71.3847 16.9325 71.3106C17.2254 71.239 17.4656 71.132 17.6602 70.9926C17.8517 70.8533 17.9949 70.6842 18.0824 70.4834C18.173 70.2858 18.2155 70.0623 18.2155 69.8153Z" fill="white"/>
<path fill-rule="evenodd" clip-rule="evenodd" d="M26.7865 72.4849L25.6468 75.6319C25.6081 75.732 25.5105 75.8099 25.3584 75.865C25.2018 75.9169 24.9648 75.9429 24.6472 75.9429C24.4817 75.9429 24.3486 75.9365 24.2478 75.9201C24.1471 75.9036 24.0691 75.8776 24.0139 75.839C23.962 75.7997 23.9328 75.7516 23.9265 75.687C23.9201 75.6249 23.936 75.547 23.9721 75.4596L25.1537 72.4849C25.0953 72.4589 25.0402 72.4171 24.9914 72.362C24.9394 72.3037 24.9033 72.2448 24.8843 72.1802L21.8321 64.009C21.7801 63.876 21.7573 63.7689 21.7573 63.6948C21.7573 63.6201 21.7801 63.558 21.8321 63.5124C21.8841 63.4713 21.9659 63.4383 22.0793 63.425C22.1928 63.4092 22.3456 63.3991 22.537 63.3991C22.7253 63.3991 22.8742 63.406 22.9851 63.4155C23.0916 63.425 23.1766 63.4415 23.2412 63.4675C23.3027 63.4934 23.3484 63.5289 23.3775 63.5745C23.4067 63.6233 23.4358 63.6879 23.4688 63.7689L25.913 70.633H25.9422L28.2996 63.7335C28.3383 63.6138 28.3839 63.5359 28.4391 63.4998C28.491 63.4643 28.5722 63.4383 28.6793 63.425C28.7896 63.4092 28.9424 63.3991 29.1471 63.3991C29.3252 63.3991 29.4716 63.4092 29.5851 63.425C29.6986 63.4383 29.7829 63.4713 29.8349 63.5124C29.89 63.558 29.916 63.6201 29.916 63.6948C29.916 63.7689 29.897 63.8665 29.8608 63.9798L26.7865 72.4849Z" fill="white"/>
<path fill-rule="evenodd" clip-rule="evenodd" d="M38.7732 72.2477C38.7732 72.2965 38.7599 72.3421 38.7371 72.3744C38.7117 72.4105 38.6693 72.4396 38.6109 72.4656C38.5558 72.4915 38.4746 72.5105 38.3739 72.5238C38.2731 72.5365 38.1469 72.5435 37.9942 72.5435C37.8414 72.5435 37.7153 72.5365 37.6081 72.5238C37.5035 72.5105 37.423 72.4915 37.3609 72.4656C37.3026 72.4396 37.2601 72.4105 37.2379 72.3744C37.2151 72.3421 37.205 72.2965 37.205 72.2477V68.8062C36.8481 68.9651 36.4748 69.0924 36.0786 69.1824C35.6824 69.2736 35.2507 69.3185 34.7899 69.3185C34.1991 69.3185 33.7085 69.2444 33.3161 69.0924C32.9231 68.9392 32.6081 68.7314 32.3742 68.4654C32.1371 68.1994 31.9717 67.8815 31.8741 67.5154C31.7739 67.1456 31.7251 66.6851 31.7251 66.1272V63.6945C31.7251 63.6426 31.7378 63.6002 31.7606 63.5647C31.7802 63.5324 31.8259 63.4995 31.8874 63.471C31.952 63.4412 32.0338 63.4247 32.1308 63.4152C32.2284 63.4057 32.3552 63.3988 32.5073 63.3988C32.6632 63.3988 32.7932 63.4057 32.8971 63.4152C32.9979 63.4247 33.0759 63.4412 33.1342 63.471C33.1925 63.4995 33.2344 63.5324 33.2635 63.5647C33.2901 63.6002 33.306 63.6426 33.306 63.6945V65.8802C33.306 66.3932 33.3421 66.7757 33.4195 67.029C33.4943 67.2817 33.6046 67.4831 33.751 67.632C33.8968 67.7814 34.0755 67.8885 34.2898 67.9467C34.5009 68.0088 34.7506 68.0379 35.0365 68.0379C35.4098 68.0379 35.7762 67.9885 36.1337 67.8948C36.4944 67.8011 36.8481 67.6649 37.205 67.4857V63.6945C37.205 63.6426 37.2151 63.6002 37.2379 63.5647C37.2601 63.5324 37.3026 63.4995 37.3609 63.471C37.423 63.4412 37.5035 63.4247 37.6081 63.4152C37.7153 63.4057 37.8414 63.3988 37.9942 63.3988C38.1469 63.3988 38.2731 63.4057 38.3739 63.4152C38.4746 63.4247 38.5558 63.4412 38.6109 63.471C38.6693 63.4995 38.7117 63.5324 38.7371 63.5647C38.7599 63.6002 38.7732 63.6426 38.7732 63.6945V72.2477Z" fill="white"/>
<path fill-rule="evenodd" clip-rule="evenodd" d="M50.1531 72.2578C50.1531 72.2996 50.1398 72.3427 50.1138 72.3813C50.0878 72.4168 50.0491 72.4497 49.9908 72.4719C49.9357 72.4915 49.8545 72.5105 49.7537 72.5238C49.6529 72.5365 49.5262 72.5435 49.374 72.5435C49.2213 72.5435 49.0945 72.5365 48.9937 72.5238C48.8897 72.5105 48.8086 72.4915 48.744 72.4719C48.6825 72.4497 48.6368 72.4168 48.6108 72.3813C48.588 72.3427 48.5753 72.2996 48.5753 72.2578V67.3343C48.5753 67.0873 48.5817 66.8346 48.5918 66.5781C48.6045 66.3216 48.621 66.0689 48.64 65.8225C48.4942 66.0752 48.3351 66.3254 48.1595 66.5686C47.9846 66.8118 47.809 67.055 47.6334 67.295L43.9975 72.2578C43.9556 72.3066 43.9163 72.3516 43.8808 72.3908C43.8447 72.4269 43.7997 72.4586 43.7477 72.482C43.6926 72.501 43.6241 72.5175 43.543 72.5276C43.4587 72.5365 43.3579 72.5435 43.2381 72.5435C43.098 72.5435 42.9845 72.5365 42.8971 72.5238C42.8058 72.5105 42.7348 72.4915 42.6828 72.4719C42.6277 72.4497 42.5884 72.4168 42.5693 72.3813C42.5465 72.3427 42.5332 72.2996 42.5332 72.2578V63.6844C42.5332 63.6394 42.5465 63.6002 42.5693 63.5615C42.5884 63.5229 42.6308 63.4938 42.6923 63.4672C42.7506 63.4418 42.8324 63.4254 42.9325 63.4152C43.0365 63.4057 43.1601 63.3994 43.3059 63.3994C43.6076 63.3994 43.8193 63.4254 43.9328 63.471C44.0463 63.5197 44.1046 63.5907 44.1046 63.6844V68.6345C44.1046 68.8847 44.0983 69.1279 44.0849 69.3743C44.0723 69.6175 44.0558 69.8575 44.0368 70.1013C44.1826 69.8575 44.329 69.6244 44.4779 69.3907C44.6275 69.1602 44.7898 68.9328 44.9584 68.7124L48.64 63.6844C48.6793 63.6331 48.718 63.5907 48.7604 63.5514C48.7991 63.5128 48.8511 63.4836 48.9126 63.4608C48.9715 63.438 49.0425 63.4254 49.1268 63.4152C49.208 63.4057 49.3157 63.3994 49.4488 63.3994C49.5819 63.3994 49.6954 63.4057 49.7861 63.4152C49.8767 63.4254 49.9515 63.4418 50.0066 63.4672C50.0593 63.4938 50.0979 63.5229 50.1207 63.5615C50.1429 63.6002 50.1531 63.6426 50.1531 63.6945V72.2578Z" fill="white"/>
<path fill-rule="evenodd" clip-rule="evenodd" d="M59.9028 64.1613C59.9028 64.288 59.8965 64.395 59.8838 64.4824C59.8705 64.5736 59.8508 64.6445 59.8223 64.7028C59.7925 64.7585 59.7602 64.8003 59.7215 64.8295C59.6854 64.8592 59.6372 64.8719 59.5783 64.8719H57.0104V72.2477C57.0104 72.2965 56.9977 72.3421 56.9743 72.3744C56.9483 72.4105 56.9065 72.4396 56.8513 72.4656C56.793 72.4915 56.715 72.5105 56.6111 72.5238C56.5103 72.5365 56.3803 72.5435 56.2212 72.5435C56.0691 72.5435 55.9423 72.5365 55.8415 72.5238C55.7414 72.5105 55.6596 72.4915 55.5981 72.4656C55.5398 72.4396 55.4973 72.4105 55.4745 72.3744C55.4523 72.3421 55.4422 72.2965 55.4422 72.2477V64.8719H52.8744C52.8224 64.8719 52.7767 64.8592 52.7343 64.8295C52.6956 64.8003 52.6601 64.7585 52.6373 64.7028C52.6113 64.6445 52.5916 64.5704 52.5758 64.4792C52.5593 64.3855 52.5498 64.2785 52.5498 64.1518C52.5498 64.0346 52.5593 63.9346 52.5758 63.8465C52.5916 63.7591 52.6113 63.6844 52.6404 63.623C52.6696 63.5647 52.7019 63.5191 52.7412 63.49C52.7799 63.4608 52.8224 63.4482 52.8744 63.4482H59.5783C59.6302 63.4482 59.6759 63.4608 59.7177 63.49C59.7602 63.5191 59.7925 63.5647 59.8185 63.623C59.8413 63.6844 59.8641 63.7591 59.88 63.8503C59.8965 63.9441 59.9028 64.0448 59.9028 64.1613Z" fill="white"/>
<path fill-rule="evenodd" clip-rule="evenodd" d="M73.9317 72.2477C73.9317 72.2965 73.9184 72.3421 73.8924 72.3744C73.8664 72.4105 73.8277 72.4396 73.7694 72.4656C73.7111 72.4915 73.6331 72.5105 73.5323 72.5238C73.4316 72.5365 73.3016 72.5435 73.1527 72.5435C72.9936 72.5435 72.8636 72.5365 72.7596 72.5238C72.6589 72.5105 72.5777 72.4915 72.5194 72.4656C72.4579 72.4396 72.4155 72.4105 72.3895 72.3744C72.3635 72.3421 72.3508 72.2965 72.3508 72.2477V64.7775H68.273V72.2477C68.273 72.2965 68.2597 72.3421 68.2344 72.3744C68.2078 72.4105 68.1659 72.4396 68.1044 72.4656C68.0455 72.4915 67.9643 72.5105 67.8642 72.5238C67.7602 72.5365 67.6335 72.5435 67.4807 72.5435C67.3311 72.5435 67.205 72.5365 67.101 72.5238C67.0002 72.5105 66.9191 72.4915 66.8608 72.4656C66.7993 72.4396 66.7568 72.4105 66.7372 72.3744C66.715 72.3421 66.7017 72.2965 66.7017 72.2477V64.0087C66.7017 63.8174 66.7441 63.6781 66.8316 63.5837C66.9159 63.4931 67.0363 63.4475 67.1885 63.4475H73.4544C73.6071 63.4475 73.7238 63.4931 73.8081 63.5837C73.8892 63.6781 73.9317 63.8174 73.9317 64.0087V72.2477Z" fill="white"/>
<path fill-rule="evenodd" clip-rule="evenodd" d="M85.5644 67.8368C85.5644 68.5861 85.4833 69.2574 85.321 69.8515C85.1619 70.4481 84.9217 70.9541 84.6098 71.3689C84.2948 71.7838 83.9056 72.1017 83.4441 72.3297C82.9801 72.5526 82.4508 72.6666 81.8537 72.6666C81.6008 72.6666 81.3662 72.6407 81.1526 72.5887C80.9346 72.54 80.7235 72.4589 80.5194 72.3519C80.3115 72.2448 80.1067 72.1087 79.9058 71.9434C79.701 71.7781 79.4868 71.5862 79.2599 71.3626V75.6408C79.2599 75.6895 79.2466 75.7351 79.2206 75.7738C79.1946 75.8099 79.1521 75.8428 79.097 75.8681C79.0386 75.8947 78.9607 75.9137 78.8599 75.9264C78.7566 75.9365 78.6266 75.9429 78.4675 75.9429C78.3179 75.9429 78.1918 75.9365 78.0878 75.9264C77.987 75.9137 77.9059 75.8947 77.8476 75.8681C77.7861 75.8428 77.7436 75.8099 77.724 75.7738C77.7012 75.7351 77.6885 75.6895 77.6885 75.6408V63.6942C77.6885 63.6359 77.698 63.5903 77.7176 63.558C77.7367 63.5226 77.776 63.4934 77.8311 63.4675C77.8894 63.4415 77.961 63.425 78.0517 63.4155C78.1398 63.4054 78.2469 63.3991 78.3731 63.3991C78.5062 63.3991 78.6171 63.4054 78.7014 63.4155C78.7889 63.425 78.8599 63.4415 78.9157 63.4675C78.974 63.4934 79.0127 63.5226 79.0355 63.558C79.0583 63.5903 79.0678 63.6359 79.0678 63.6942V64.8456C79.3277 64.5771 79.5774 64.3465 79.8208 64.1521C80.0611 63.9539 80.3013 63.7917 80.5485 63.6619C80.792 63.5327 81.0417 63.4314 81.2984 63.3668C81.5551 63.2984 81.8271 63.2661 82.113 63.2661C82.7335 63.2661 83.2628 63.3864 83.7008 63.6296C84.1388 63.8696 84.4932 64.1971 84.7689 64.6157C85.0447 65.0343 85.2462 65.5207 85.373 66.0755C85.5029 66.6303 85.5644 67.2168 85.5644 67.8368ZM83.9087 68.018C83.9087 67.5803 83.8758 67.1592 83.8111 66.75C83.7427 66.3415 83.6292 65.978 83.4669 65.6601C83.3047 65.3453 83.0872 65.0926 82.8147 64.9013C82.5415 64.7132 82.2042 64.6157 81.7986 64.6157C81.5938 64.6157 81.3954 64.6448 81.1976 64.7069C81.003 64.7683 80.8015 64.8621 80.6005 64.9919C80.3958 65.1217 80.1847 65.2934 79.9609 65.5043C79.7403 65.7183 79.5064 65.978 79.2599 66.2896V69.6925C79.6884 70.2175 80.0972 70.6203 80.4864 70.899C80.8731 71.1777 81.2788 71.317 81.7041 71.317C82.0971 71.317 82.435 71.2201 82.717 71.032C82.9966 70.8401 83.2267 70.5874 83.4023 70.2695C83.5741 69.9553 83.704 69.5981 83.7851 69.2055C83.8694 68.8128 83.9087 68.4176 83.9087 68.018Z" fill="white"/>
<path fill-rule="evenodd" clip-rule="evenodd" d="M96.7297 67.8755C96.7297 68.5728 96.6391 69.215 96.454 69.7989C96.2721 70.386 95.9957 70.892 95.6325 71.317C95.2686 71.7413 94.811 72.0726 94.262 72.3094C93.7137 72.5463 93.0773 72.666 92.3566 72.666C91.6524 72.666 91.0381 72.5596 90.5158 72.3512C89.9935 72.1441 89.5549 71.8395 89.2075 71.4405C88.8601 71.0415 88.6002 70.5545 88.4285 69.9838C88.256 69.4164 88.1724 68.7672 88.1724 68.0471C88.1724 67.3498 88.263 66.7076 88.4411 66.1237C88.6231 65.5366 88.8956 65.0305 89.2595 64.6056C89.6233 64.1806 90.081 63.8532 90.6267 63.6195C91.1719 63.3826 91.8077 63.2661 92.5354 63.2661C93.2396 63.2661 93.8532 63.3699 94.3761 63.5808C94.8985 63.7879 95.3371 64.0932 95.6845 64.4922C96.035 64.8912 96.2949 65.3776 96.4698 65.9451C96.6454 66.5163 96.7297 67.1585 96.7297 67.8755ZM95.0772 67.9787C95.0772 67.5189 95.0316 67.0806 94.9473 66.669C94.863 66.2567 94.7203 65.8969 94.5251 65.5853C94.3273 65.2737 94.0611 65.0305 93.7271 64.8488C93.3892 64.6676 92.9702 64.5764 92.4701 64.5764C92.0061 64.5764 91.6099 64.6607 91.2758 64.8266C90.9443 64.9881 90.6679 65.2218 90.4543 65.5239C90.2363 65.8254 90.0778 66.1819 89.9738 66.5942C89.8699 67.0059 89.8179 67.4537 89.8179 67.9432C89.8179 68.4106 89.8604 68.8514 89.9441 69.2631C90.029 69.676 90.1716 70.0358 90.3732 70.341C90.571 70.6488 90.8404 70.892 91.1751 71.0738C91.5129 71.2556 91.9313 71.343 92.4314 71.343C92.8891 71.343 93.2852 71.2619 93.6193 71.0966C93.9571 70.9307 94.2335 70.7008 94.4471 70.4018C94.6652 70.1067 94.8243 69.7501 94.9245 69.3385C95.0252 68.9262 95.0772 68.4752 95.0772 67.9787Z" fill="white"/>
<path fill-rule="evenodd" clip-rule="evenodd" d="M109.821 67.8946C109.821 68.5666 109.723 69.1822 109.525 69.7471C109.327 70.3108 109.039 70.801 108.655 71.2196C108.272 71.6376 107.798 71.9752 107.233 72.2285C106.669 72.4812 106.022 72.6275 105.292 72.6661V75.6403C105.292 75.6897 105.278 75.7346 105.256 75.7733C105.23 75.8094 105.188 75.8423 105.133 75.8676C105.074 75.8942 104.996 75.9132 104.892 75.9265C104.792 75.936 104.665 75.9424 104.513 75.9424C104.36 75.9424 104.234 75.936 104.133 75.9265C104.032 75.9132 103.951 75.8942 103.89 75.8676C103.831 75.8423 103.786 75.8094 103.763 75.7733C103.737 75.7346 103.724 75.6897 103.724 75.6403V72.6661C102.98 72.6332 102.328 72.504 101.763 72.2804C101.201 72.0562 100.727 71.7447 100.347 71.3495C99.9678 70.9536 99.6819 70.4767 99.4905 69.9188C99.3016 69.3608 99.2046 68.7351 99.2046 68.0378C99.2046 67.3658 99.3054 66.747 99.5 66.1853C99.6984 65.621 99.9868 65.1276 100.37 64.7128C100.753 64.2941 101.227 63.9604 101.792 63.707C102.357 63.4575 103 63.3112 103.724 63.2656V59.6556C103.724 59.61 103.737 59.5714 103.763 59.5321C103.786 59.4935 103.831 59.4612 103.89 59.4384C103.951 59.4124 104.032 59.3927 104.133 59.3801C104.234 59.3668 104.36 59.3605 104.513 59.3605C104.665 59.3605 104.792 59.3668 104.892 59.3801C104.996 59.3927 105.074 59.4124 105.133 59.4384C105.188 59.4612 105.23 59.4935 105.256 59.5321C105.278 59.5714 105.292 59.61 105.292 59.6556V63.2656C106.048 63.3049 106.707 63.4379 107.272 63.6652C107.837 63.8951 108.308 64.2067 108.684 64.6026C109.061 64.9984 109.343 65.4753 109.535 66.0333C109.727 66.5906 109.821 67.2106 109.821 67.8946ZM108.194 67.9985C108.194 66.9668 107.967 66.1631 107.512 65.5855C107.061 65.0079 106.321 64.6767 105.292 64.5861V71.3526C106.237 71.2975 106.957 70.9859 107.451 70.4216C107.947 69.8573 108.194 69.0492 108.194 67.9985ZM103.724 64.5861C102.785 64.638 102.068 64.9433 101.575 65.5044C101.078 66.0649 100.831 66.8762 100.831 67.9434C100.831 68.4431 100.882 68.894 100.99 69.2962C101.094 69.6983 101.263 70.0454 101.494 70.3311C101.724 70.6199 102.022 70.8529 102.392 71.0246C102.759 71.2 103.204 71.3108 103.724 71.3526V64.5861Z" fill="white"/>
<path fill-rule="evenodd" clip-rule="evenodd" d="M120.197 67.5998C120.197 67.8468 120.135 68.0248 120.012 68.1287C119.889 68.2325 119.749 68.2845 119.59 68.2845H113.976C113.976 68.7614 114.025 69.1863 114.119 69.5689C114.214 69.9482 114.373 70.2731 114.596 70.5448C114.818 70.8178 115.107 71.0281 115.46 71.1744C115.818 71.3207 116.249 71.3916 116.766 71.3916C117.171 71.3916 117.532 71.3593 117.85 71.2909C118.165 71.2269 118.44 71.1516 118.671 71.0673C118.902 70.9863 119.093 70.9115 119.243 70.8469C119.392 70.7792 119.502 70.7462 119.58 70.7462C119.622 70.7462 119.664 70.7557 119.697 70.7792C119.733 70.8013 119.759 70.8336 119.778 70.8792C119.798 70.9248 119.814 70.9863 119.823 71.0642C119.83 71.1421 119.837 71.239 119.837 71.353C119.837 71.4372 119.834 71.5088 119.827 71.567C119.82 71.6285 119.814 71.6804 119.804 71.7292C119.794 71.7779 119.778 71.8197 119.756 71.859C119.733 71.8945 119.704 71.9337 119.671 71.966C119.635 72.0015 119.531 72.0598 119.359 72.1377C119.191 72.2156 118.967 72.2935 118.694 72.3714C118.421 72.4455 118.106 72.5145 117.749 72.5753C117.392 72.6336 117.009 72.6665 116.603 72.6665C115.899 72.6665 115.282 72.5658 114.752 72.3714C114.223 72.1738 113.779 71.8818 113.416 71.4955C113.054 71.1098 112.782 70.6259 112.597 70.042C112.415 69.4587 112.321 68.7804 112.321 68.009C112.321 67.2756 112.418 66.6137 112.607 66.0266C112.798 65.4427 113.071 64.9436 113.431 64.5345C113.788 64.126 114.22 63.8144 114.73 63.594C115.237 63.3768 115.805 63.2659 116.432 63.2659C117.103 63.2659 117.675 63.3736 118.149 63.5902C118.62 63.8049 119.009 64.0969 119.314 64.4598C119.619 64.8233 119.84 65.2514 119.983 65.741C120.126 66.2344 120.197 66.7562 120.197 67.3142V67.5998ZM118.62 67.1362C118.639 66.3123 118.457 65.6631 118.071 65.1963C117.687 64.7258 117.119 64.4921 116.366 64.4921C115.976 64.4921 115.639 64.5668 115.347 64.7131C115.055 64.8556 114.811 65.0507 114.616 65.2907C114.418 65.5301 114.266 65.8126 114.158 66.1305C114.051 66.4516 113.99 66.7854 113.976 67.1362H118.62Z" fill="white"/>
<path fill-rule="evenodd" clip-rule="evenodd" d="M129.587 70.9438C129.587 71.054 129.583 71.1446 129.577 71.2263C129.57 71.3036 129.557 71.3726 129.544 71.4239C129.528 71.4796 129.509 71.5278 129.486 71.5664C129.463 71.6088 129.415 71.6703 129.333 71.7488C129.256 71.8267 129.119 71.9268 128.931 72.0433C128.739 72.1605 128.525 72.2643 128.288 72.3549C128.051 72.4493 127.791 72.5234 127.512 72.5785C127.232 72.6374 126.943 72.6665 126.645 72.6665C126.032 72.6665 125.486 72.5626 125.012 72.3612C124.535 72.1573 124.139 71.8615 123.817 71.4727C123.496 71.0838 123.252 70.6031 123.084 70.0388C122.918 69.4713 122.834 68.8165 122.834 68.0767C122.834 67.2331 122.934 66.5099 123.142 65.9031C123.347 65.2996 123.63 64.8037 123.99 64.4173C124.346 64.0316 124.769 63.7428 125.252 63.5579C125.74 63.3698 126.262 63.2761 126.827 63.2761C127.099 63.2761 127.366 63.302 127.622 63.3533C127.879 63.4021 128.116 63.4705 128.33 63.5516C128.544 63.6326 128.739 63.7295 128.905 63.8366C129.073 63.9442 129.197 64.0348 129.272 64.1127C129.35 64.1874 129.402 64.2489 129.428 64.2945C129.457 64.3363 129.483 64.3882 129.499 64.4503C129.518 64.5117 129.532 64.5763 129.538 64.6542C129.544 64.7289 129.547 64.8265 129.547 64.9398C129.547 65.1862 129.518 65.3585 129.463 65.4554C129.405 65.5561 129.336 65.6048 129.252 65.6048C129.158 65.6048 129.047 65.5529 128.924 65.449C128.801 65.342 128.645 65.2286 128.453 65.102C128.265 64.9753 128.035 64.8588 127.766 64.7549C127.496 64.6479 127.177 64.5959 126.807 64.5959C126.055 64.5959 125.477 64.8879 125.074 65.4655C124.671 66.0463 124.47 66.8861 124.47 67.9887C124.47 68.5403 124.522 69.0236 124.626 69.439C124.73 69.8539 124.885 70.2009 125.086 70.4802C125.292 70.7589 125.538 70.9666 125.834 71.1028C126.129 71.239 126.466 71.3067 126.846 71.3067C127.206 71.3067 127.525 71.2485 127.798 71.1357C128.07 71.0217 128.307 70.8957 128.505 70.7589C128.706 70.6227 128.875 70.4999 129.012 70.389C129.149 70.2788 129.252 70.2237 129.33 70.2237C129.372 70.2237 129.411 70.237 129.443 70.2592C129.476 70.2858 129.502 70.3276 129.525 70.389C129.547 70.4511 129.561 70.5258 129.57 70.6164C129.58 70.7108 129.587 70.8178 129.587 70.9438Z" fill="white"/>
<path fill-rule="evenodd" clip-rule="evenodd" d="M138.567 70.9438C138.567 71.054 138.564 71.1446 138.558 71.2263C138.551 71.3036 138.538 71.3726 138.525 71.4239C138.509 71.4796 138.489 71.5278 138.467 71.5664C138.444 71.6088 138.395 71.6703 138.314 71.7488C138.236 71.8267 138.1 71.9268 137.912 72.0433C137.72 72.1605 137.505 72.2643 137.268 72.3549C137.032 72.4493 136.772 72.5234 136.493 72.5785C136.214 72.6374 135.925 72.6665 135.626 72.6665C135.012 72.6665 134.467 72.5626 133.993 72.3612C133.516 72.1573 133.12 71.8615 132.798 71.4727C132.477 71.0838 132.233 70.6031 132.064 70.0388C131.899 69.4713 131.814 68.8165 131.814 68.0767C131.814 67.2331 131.915 66.5099 132.123 65.9031C132.327 65.2996 132.61 64.8037 132.97 64.4173C133.327 64.0316 133.749 63.7428 134.233 63.5579C134.72 63.3698 135.243 63.2761 135.807 63.2761C136.08 63.2761 136.347 63.302 136.603 63.3533C136.86 63.4021 137.097 63.4705 137.311 63.5516C137.525 63.6326 137.72 63.7295 137.886 63.8366C138.054 63.9442 138.178 64.0348 138.252 64.1127C138.33 64.1874 138.382 64.2489 138.408 64.2945C138.437 64.3363 138.463 64.3882 138.48 64.4503C138.499 64.5117 138.512 64.5763 138.519 64.6542C138.525 64.7289 138.528 64.8265 138.528 64.9398C138.528 65.1862 138.499 65.3585 138.444 65.4554C138.385 65.5561 138.317 65.6048 138.233 65.6048C138.139 65.6048 138.028 65.5529 137.905 65.449C137.782 65.342 137.626 65.2286 137.434 65.102C137.246 64.9753 137.015 64.8588 136.746 64.7549C136.477 64.6479 136.158 64.5959 135.788 64.5959C135.035 64.5959 134.457 64.8879 134.055 65.4655C133.652 66.0463 133.451 66.8861 133.451 67.9887C133.451 68.5403 133.502 69.0236 133.607 69.439C133.71 69.8539 133.866 70.2009 134.067 70.4802C134.273 70.7589 134.519 70.9666 134.814 71.1028C135.11 71.239 135.447 71.3067 135.828 71.3067C136.188 71.3067 136.506 71.2485 136.778 71.1357C137.051 71.0217 137.288 70.8957 137.486 70.7589C137.687 70.6227 137.857 70.4999 137.993 70.389C138.129 70.2788 138.233 70.2237 138.311 70.2237C138.353 70.2237 138.392 70.237 138.425 70.2592C138.457 70.2858 138.483 70.3276 138.505 70.389C138.528 70.4511 138.541 70.5258 138.551 70.6164C138.561 70.7108 138.567 70.8178 138.567 70.9438Z" fill="white"/>
<path fill-rule="evenodd" clip-rule="evenodd" d="M149.116 72.2578C149.116 72.2996 149.103 72.3427 149.077 72.3813C149.051 72.4168 149.012 72.4497 148.954 72.4719C148.899 72.4915 148.817 72.5105 148.717 72.5238C148.616 72.5365 148.489 72.5435 148.337 72.5435C148.184 72.5435 148.057 72.5365 147.957 72.5238C147.853 72.5105 147.772 72.4915 147.707 72.4719C147.645 72.4497 147.6 72.4168 147.574 72.3813C147.551 72.3427 147.538 72.2996 147.538 72.2578V67.3343C147.538 67.0873 147.545 66.8346 147.554 66.5781C147.567 66.3216 147.583 66.0689 147.603 65.8225C147.457 66.0752 147.298 66.3254 147.122 66.5686C146.947 66.8118 146.772 67.055 146.596 67.295L142.96 72.2578C142.919 72.3066 142.879 72.3516 142.843 72.3908C142.808 72.4269 142.763 72.4586 142.711 72.482C142.655 72.501 142.587 72.5175 142.506 72.5276C142.421 72.5365 142.321 72.5435 142.201 72.5435C142.061 72.5435 141.947 72.5365 141.86 72.5238C141.769 72.5105 141.698 72.4915 141.646 72.4719C141.591 72.4497 141.551 72.4168 141.532 72.3813C141.509 72.3427 141.496 72.2996 141.496 72.2578V63.6844C141.496 63.6394 141.509 63.6002 141.532 63.5615C141.551 63.5229 141.594 63.4938 141.655 63.4672C141.714 63.4418 141.795 63.4254 141.895 63.4152C141.999 63.4057 142.123 63.3994 142.269 63.3994C142.571 63.3994 142.782 63.4254 142.896 63.471C143.009 63.5197 143.067 63.5907 143.067 63.6844V68.6345C143.067 68.8847 143.061 69.1279 143.048 69.3743C143.035 69.6175 143.019 69.8575 143 70.1013C143.145 69.8575 143.292 69.6244 143.441 69.3907C143.59 69.1602 143.753 68.9328 143.921 68.7124L147.603 63.6844C147.642 63.6331 147.681 63.5907 147.723 63.5514C147.762 63.5128 147.814 63.4836 147.875 63.4608C147.934 63.438 148.005 63.4254 148.09 63.4152C148.171 63.4057 148.279 63.3994 148.412 63.3994C148.545 63.3994 148.658 63.4057 148.749 63.4152C148.84 63.4254 148.915 63.4418 148.97 63.4672C149.022 63.4938 149.061 63.5229 149.083 63.5615C149.106 63.6002 149.116 63.6426 149.116 63.6945V72.2578Z" fill="white"/>
<path fill-rule="evenodd" clip-rule="evenodd" d="M160.833 67.8755C160.833 68.5728 160.742 69.215 160.557 69.7989C160.375 70.386 160.099 70.892 159.736 71.317C159.372 71.7413 158.915 72.0726 158.366 72.3094C157.817 72.5463 157.18 72.666 156.46 72.666C155.755 72.666 155.142 72.5596 154.619 72.3512C154.097 72.1441 153.659 71.8395 153.311 71.4405C152.963 71.0415 152.704 70.5545 152.531 69.9838C152.36 69.4164 152.275 68.7672 152.275 68.0471C152.275 67.3498 152.367 66.7076 152.545 66.1237C152.727 65.5366 152.999 65.0305 153.363 64.6056C153.726 64.1806 154.185 63.8532 154.73 63.6195C155.275 63.3826 155.911 63.2661 156.639 63.2661C157.343 63.2661 157.957 63.3699 158.479 63.5808C159.002 63.7879 159.441 64.0932 159.788 64.4922C160.138 64.8912 160.398 65.3776 160.574 65.9451C160.748 66.5163 160.833 67.1585 160.833 67.8755ZM159.181 67.9787C159.181 67.5189 159.135 67.0806 159.05 66.669C158.967 66.2567 158.823 65.8969 158.628 65.5853C158.43 65.2737 158.165 65.0305 157.83 64.8488C157.492 64.6676 157.073 64.5764 156.574 64.5764C156.11 64.5764 155.714 64.6607 155.379 64.8266C155.048 64.9881 154.772 65.2218 154.558 65.5239C154.34 65.8254 154.181 66.1819 154.078 66.5942C153.974 67.0059 153.922 67.4537 153.922 67.9432C153.922 68.4106 153.963 68.8514 154.048 69.2631C154.133 69.676 154.275 70.0358 154.477 70.341C154.674 70.6488 154.944 70.892 155.278 71.0738C155.616 71.2556 156.035 71.343 156.535 71.343C156.992 71.343 157.388 71.2619 157.723 71.0966C158.06 70.9307 158.337 70.7008 158.551 70.4018C158.768 70.1067 158.927 69.7501 159.028 69.3385C159.129 68.9262 159.181 68.4752 159.181 67.9787Z" fill="white"/>
<path fill-rule="evenodd" clip-rule="evenodd" d="M171.498 72.2477C171.498 72.2965 171.485 72.3421 171.459 72.3744C171.433 72.4105 171.394 72.4396 171.336 72.4656C171.278 72.4915 171.2 72.5105 171.099 72.5238C170.995 72.5365 170.869 72.5435 170.719 72.5435C170.56 72.5435 170.43 72.5365 170.326 72.5238C170.226 72.5105 170.148 72.4915 170.089 72.4656C170.034 72.4396 169.992 72.4105 169.966 72.3744C169.94 72.3421 169.927 72.2965 169.927 72.2477V68.4946H165.564V72.2477C165.564 72.2965 165.551 72.3421 165.525 72.3744C165.499 72.4105 165.457 72.4396 165.402 72.4656C165.343 72.4915 165.265 72.5105 165.165 72.5238C165.061 72.5365 164.931 72.5435 164.772 72.5435C164.622 72.5435 164.495 72.5365 164.392 72.5238C164.291 72.5105 164.21 72.4915 164.152 72.4656C164.09 72.4396 164.048 72.4105 164.028 72.3744C164.006 72.3421 163.993 72.2965 163.993 72.2477V63.6945C163.993 63.6426 164.006 63.6002 164.028 63.5647C164.048 63.5324 164.09 63.4995 164.152 63.471C164.21 63.4412 164.291 63.4247 164.392 63.4152C164.495 63.4057 164.622 63.3988 164.772 63.3988C164.931 63.3988 165.061 63.4057 165.165 63.4152C165.265 63.4247 165.343 63.4412 165.402 63.471C165.457 63.4995 165.499 63.5324 165.525 63.5647C165.551 63.6002 165.564 63.6426 165.564 63.6945V67.1715H169.927V63.6945C169.927 63.6426 169.94 63.6002 169.966 63.5647C169.992 63.5324 170.034 63.4995 170.089 63.471C170.148 63.4412 170.226 63.4247 170.326 63.4152C170.43 63.4057 170.56 63.3988 170.719 63.3988C170.869 63.3988 170.995 63.4057 171.099 63.4152C171.2 63.4247 171.278 63.4412 171.336 63.471C171.394 63.4995 171.433 63.5324 171.459 63.5647C171.485 63.6002 171.498 63.6426 171.498 63.6945V72.2477Z" fill="white"/>
<path fill-rule="evenodd" clip-rule="evenodd" d="M181.706 72.2579C181.706 72.3326 181.68 72.3909 181.628 72.427C181.58 72.4656 181.508 72.4947 181.421 72.5144C181.329 72.534 181.199 72.5435 181.031 72.5435C180.865 72.5435 180.732 72.534 180.635 72.5144C180.537 72.4947 180.466 72.4656 180.42 72.427C180.375 72.3909 180.356 72.3326 180.356 72.2579V71.4016C179.979 71.8006 179.563 72.1122 179.103 72.3326C178.645 72.553 178.157 72.667 177.645 72.667C177.193 72.667 176.784 72.6087 176.421 72.4884C176.057 72.3719 175.745 72.2028 175.489 71.9817C175.232 71.7588 175.031 71.4858 174.888 71.1647C174.748 70.8405 174.677 70.4744 174.677 70.0621C174.677 69.5789 174.774 69.1634 174.97 68.8068C175.168 68.4528 175.45 68.1577 175.816 67.924C176.183 67.6877 176.635 67.5129 177.167 67.3958C177.7 67.2792 178.3 67.2203 178.966 67.2203H180.144V66.5553C180.144 66.2247 180.108 65.9328 180.041 65.6794C179.969 65.4267 179.859 65.2158 179.703 65.0505C179.547 64.8821 179.345 64.7554 179.099 64.668C178.852 64.5831 178.547 64.5413 178.187 64.5413C177.797 64.5413 177.453 64.5863 177.144 64.6775C176.836 64.7719 176.567 64.8719 176.336 64.9821C176.102 65.093 175.91 65.193 175.755 65.2874C175.599 65.378 175.486 65.4236 175.408 65.4236C175.359 65.4236 175.314 65.4103 175.275 65.3875C175.236 65.3615 175.203 65.3229 175.174 65.2709C175.148 65.2222 175.125 65.1576 175.113 65.0765C175.099 64.9986 175.093 64.9106 175.093 64.8168C175.093 64.6579 175.106 64.5312 175.129 64.4406C175.151 64.3501 175.203 64.262 175.291 64.1778C175.375 64.0967 175.521 63.9992 175.732 63.889C175.94 63.7788 176.18 63.6781 176.454 63.5844C176.726 63.4938 177.025 63.4184 177.349 63.357C177.671 63.2956 177.998 63.2664 178.33 63.2664C178.943 63.2664 179.466 63.338 179.897 63.4773C180.329 63.6167 180.676 63.8212 180.943 64.0904C181.21 64.3596 181.404 64.6933 181.524 65.093C181.644 65.4913 181.706 65.9556 181.706 66.4876V72.2579ZM180.144 68.3527H178.803C178.372 68.3527 177.998 68.3882 177.68 68.4598C177.365 68.5339 177.102 68.6409 176.892 68.784C176.684 68.9265 176.528 69.0988 176.431 69.2964C176.332 69.4978 176.284 69.7245 176.284 69.9842C176.284 70.4282 176.424 70.7822 176.706 71.045C176.989 71.3072 177.385 71.4409 177.891 71.4409C178.304 71.4409 178.684 71.337 179.037 71.1261C179.388 70.9184 179.758 70.5973 180.144 70.1653V68.3527Z" fill="white"/>
<path fill-rule="evenodd" clip-rule="evenodd" d="M192.462 72.248C192.462 72.2967 192.45 72.3423 192.427 72.3746C192.401 72.4107 192.359 72.4399 192.3 72.4658C192.245 72.4918 192.164 72.5108 192.064 72.5241C191.963 72.5368 191.836 72.5437 191.683 72.5437C191.525 72.5437 191.394 72.5368 191.294 72.5241C191.193 72.5108 191.112 72.4918 191.05 72.4658C190.992 72.4399 190.946 72.4107 190.924 72.3746C190.898 72.3423 190.885 72.2967 190.885 72.248V64.7778H188.525C188.424 65.7867 188.303 66.6822 188.161 67.4669C188.018 68.2516 187.855 68.9363 187.68 69.5202C187.502 70.1041 187.301 70.5943 187.08 70.9933C186.859 71.3917 186.615 71.7128 186.352 71.956C186.089 72.203 185.804 72.3778 185.496 72.4848C185.19 72.5919 184.86 72.647 184.512 72.647C184.453 72.647 184.404 72.6375 184.366 72.6178C184.323 72.5988 184.291 72.5627 184.265 72.5146C184.239 72.4627 184.219 72.3911 184.207 72.2999C184.193 72.2093 184.187 72.0896 184.187 71.944C184.187 71.7907 184.193 71.6678 184.203 71.5741C184.213 71.4759 184.229 71.4018 184.252 71.3429C184.271 71.2878 184.301 71.2492 184.337 71.2302C184.372 71.2099 184.415 71.2004 184.463 71.2004C184.674 71.2004 184.872 71.1523 185.064 71.0541C185.256 70.9572 185.431 70.7951 185.596 70.5715C185.762 70.3442 185.918 70.0522 186.063 69.6855C186.21 69.3226 186.343 68.8748 186.463 68.3428C186.584 67.8108 186.697 67.1883 186.804 66.4745C186.911 65.7607 187.015 64.9437 187.109 64.0191C187.122 63.8278 187.168 63.6878 187.246 63.5941C187.326 63.5029 187.437 63.4579 187.583 63.4579H191.979C192.131 63.4579 192.249 63.5029 192.336 63.5941C192.42 63.6878 192.462 63.8278 192.462 64.0191V72.248Z" fill="white"/>
<path fill-rule="evenodd" clip-rule="evenodd" d="M203.329 69.5303C203.329 69.9673 203.248 70.3765 203.086 70.7565C202.923 71.1358 202.674 71.4671 202.329 71.7419C201.988 72.0212 201.55 72.2416 201.018 72.4038C200.485 72.5659 199.846 72.647 199.106 72.647C198.933 72.647 198.758 72.6438 198.573 72.6406C198.388 72.6375 198.209 72.6311 198.031 72.6216C197.852 72.6147 197.677 72.602 197.508 72.5887C197.336 72.576 197.167 72.5596 197.002 72.5437C196.735 72.5108 196.541 72.4234 196.414 72.2841C196.288 72.1479 196.223 71.9338 196.223 71.6482V63.6948C196.223 63.6429 196.236 63.6004 196.258 63.565C196.278 63.5327 196.32 63.5004 196.382 63.4712C196.44 63.4415 196.521 63.425 196.622 63.4155C196.726 63.406 196.852 63.399 197.002 63.399C197.154 63.399 197.281 63.406 197.385 63.4155C197.485 63.425 197.566 63.4415 197.625 63.4712C197.687 63.5004 197.729 63.5327 197.755 63.565C197.781 63.6004 197.794 63.6429 197.794 63.6948V66.7082C198.028 66.6886 198.281 66.6721 198.553 66.6664C198.826 66.6563 199.106 66.6493 199.391 66.6493C200.083 66.6493 200.676 66.7177 201.174 66.8539C201.67 66.99 202.079 67.1851 202.397 67.4378C202.712 67.6911 202.949 67.9958 203.099 68.346C203.251 68.6994 203.329 69.0927 203.329 69.5303ZM201.674 69.6336C201.674 69.3745 201.631 69.1377 201.55 68.9268C201.466 68.7127 201.33 68.5341 201.141 68.3846C200.949 68.2358 200.702 68.1218 200.397 68.0407C200.096 67.9628 199.719 67.9242 199.277 67.9242C199.011 67.9242 198.748 67.9312 198.492 67.9438C198.236 67.9571 198.002 67.9698 197.794 67.9888V71.2783C198.015 71.3043 198.252 71.3271 198.505 71.3429C198.761 71.3632 199.04 71.3727 199.353 71.3727C200.138 71.3727 200.723 71.2201 201.102 70.9123C201.482 70.6032 201.674 70.1789 201.674 69.6336Z" fill="white"/>
<path fill-rule="evenodd" clip-rule="evenodd" d="M213.725 72.2477C213.725 72.2965 213.712 72.3421 213.686 72.3744C213.66 72.4105 213.622 72.4396 213.563 72.4656C213.504 72.4915 213.426 72.5105 213.326 72.5238C213.222 72.5365 213.096 72.5435 212.946 72.5435C212.788 72.5435 212.657 72.5365 212.553 72.5238C212.452 72.5105 212.375 72.4915 212.316 72.4656C212.261 72.4396 212.219 72.4105 212.193 72.3744C212.167 72.3421 212.154 72.2965 212.154 72.2477V68.4946H207.791V72.2477C207.791 72.2965 207.777 72.3421 207.751 72.3744C207.725 72.4105 207.684 72.4396 207.628 72.4656C207.57 72.4915 207.492 72.5105 207.391 72.5238C207.287 72.5365 207.157 72.5435 206.999 72.5435C206.849 72.5435 206.723 72.5365 206.619 72.5238C206.518 72.5105 206.437 72.4915 206.378 72.4656C206.316 72.4396 206.274 72.4105 206.255 72.3744C206.233 72.3421 206.219 72.2965 206.219 72.2477V63.6945C206.219 63.6426 206.233 63.6002 206.255 63.5647C206.274 63.5324 206.316 63.4995 206.378 63.471C206.437 63.4412 206.518 63.4247 206.619 63.4152C206.723 63.4057 206.849 63.3988 206.999 63.3988C207.157 63.3988 207.287 63.4057 207.391 63.4152C207.492 63.4247 207.57 63.4412 207.628 63.471C207.684 63.4995 207.725 63.5324 207.751 63.5647C207.777 63.6002 207.791 63.6426 207.791 63.6945V67.1715H212.154V63.6945C212.154 63.6426 212.167 63.6002 212.193 63.5647C212.219 63.5324 212.261 63.4995 212.316 63.471C212.375 63.4412 212.452 63.4247 212.553 63.4152C212.657 63.4057 212.788 63.3988 212.946 63.3988C213.096 63.3988 213.222 63.4057 213.326 63.4152C213.426 63.4247 213.504 63.4412 213.563 63.471C213.622 63.4995 213.66 63.5324 213.686 63.5647C213.712 63.6002 213.725 63.6426 213.725 63.6945V72.2477Z" fill="white"/>
<path fill-rule="evenodd" clip-rule="evenodd" d="M225.442 67.8755C225.442 68.5728 225.351 69.215 225.166 69.7989C224.985 70.386 224.709 70.892 224.346 71.317C223.981 71.7413 223.524 72.0726 222.975 72.3094C222.426 72.5463 221.79 72.666 221.07 72.666C220.365 72.666 219.751 72.5596 219.228 72.3512C218.706 72.1441 218.268 71.8395 217.921 71.4405C217.573 71.0415 217.313 70.5545 217.141 69.9838C216.969 69.4164 216.884 68.7672 216.884 68.0471C216.884 67.3498 216.976 66.7076 217.154 66.1237C217.336 65.5366 217.609 65.0305 217.972 64.6056C218.336 64.1806 218.794 63.8532 219.339 63.6195C219.884 63.3826 220.52 63.2661 221.248 63.2661C221.952 63.2661 222.566 63.3699 223.089 63.5808C223.611 63.7879 224.05 64.0932 224.397 64.4922C224.748 64.8912 225.007 65.3776 225.183 65.9451C225.358 66.5163 225.442 67.1585 225.442 67.8755ZM223.79 67.9787C223.79 67.5189 223.744 67.0806 223.66 66.669C223.576 66.2567 223.433 65.8969 223.238 65.5853C223.04 65.2737 222.774 65.0305 222.44 64.8488C222.102 64.6676 221.683 64.5764 221.183 64.5764C220.719 64.5764 220.322 64.6607 219.988 64.8266C219.657 64.9881 219.38 65.2218 219.167 65.5239C218.949 65.8254 218.79 66.1819 218.686 66.5942C218.582 67.0059 218.531 67.4537 218.531 67.9432C218.531 68.4106 218.572 68.8514 218.657 69.2631C218.742 69.676 218.884 70.0358 219.086 70.341C219.284 70.6488 219.553 70.892 219.888 71.0738C220.225 71.2556 220.644 71.343 221.144 71.343C221.602 71.343 221.997 71.2619 222.332 71.0966C222.67 70.9307 222.946 70.7008 223.16 70.4018C223.377 70.1067 223.537 69.7501 223.637 69.3385C223.738 68.9262 223.79 68.4752 223.79 67.9787Z" fill="white"/>
<path fill-rule="evenodd" clip-rule="evenodd" d="M231.381 68.9395C231.381 68.9914 231.368 69.0364 231.345 69.0725C231.326 69.1111 231.284 69.1434 231.228 69.1694C231.17 69.1922 231.099 69.2118 231.007 69.2245C230.92 69.2384 230.81 69.2441 230.676 69.2441C230.543 69.2441 230.433 69.2384 230.342 69.2245C230.255 69.2118 230.183 69.1922 230.125 69.1694C230.066 69.1434 230.027 69.1111 230.004 69.0725C229.985 69.0364 229.972 68.9914 229.972 68.9395L229.81 59.8733C229.804 59.7986 229.812 59.7302 229.839 59.6757C229.864 59.6168 229.911 59.5712 229.978 59.5326C230.044 59.4933 230.131 59.4673 230.245 59.4515C230.355 59.4357 230.498 59.4287 230.676 59.4287C230.849 59.4287 230.988 59.4388 231.099 59.4547C231.209 59.4743 231.299 59.5034 231.365 59.5427C231.433 59.5782 231.478 59.6269 231.504 59.6782C231.53 59.734 231.544 59.7986 231.544 59.8733L231.381 68.9395ZM231.677 71.4956C231.677 71.7065 231.66 71.8788 231.631 72.0143C231.606 72.1505 231.55 72.2607 231.472 72.3487C231.391 72.4329 231.287 72.4912 231.16 72.5273C231.034 72.5628 230.871 72.5786 230.676 72.5786C230.479 72.5786 230.316 72.5628 230.186 72.5273C230.056 72.4912 229.952 72.4329 229.878 72.3487C229.8 72.2607 229.748 72.1505 229.719 72.0143C229.693 71.8788 229.677 71.7065 229.677 71.4956C229.677 71.2879 229.693 71.1131 229.719 70.9699C229.748 70.8268 229.8 70.7172 229.878 70.6362C229.952 70.5583 230.056 70.5 230.186 70.4639C230.316 70.4316 230.479 70.412 230.676 70.412C230.871 70.412 231.034 70.4316 231.16 70.4639C231.287 70.5 231.391 70.5583 231.472 70.6362C231.55 70.7172 231.606 70.8268 231.631 70.9699C231.66 71.1131 231.677 71.2879 231.677 71.4956Z" fill="white"/>
<path fill-rule="evenodd" clip-rule="evenodd" d="M112.304 0.169689L112.991 0.870155L113.664 1.59912L114.322 2.34202L114.965 3.08555L115.581 3.85759L116.181 4.64356L116.768 5.44409L117.34 6.25855L117.884 7.08759L118.413 7.93119L118.914 8.78872L119.4 9.64626L119.858 10.5329L120.301 11.4335L120.731 12.3341L121.132 13.2487L121.518 14.1778L121.876 15.1214L122.204 16.0645L122.519 17.0366L122.805 18.0088L123.077 18.9803L123.321 19.9671L123.535 20.9677L123.721 21.9823L123.892 22.9969L124.036 24.0261L124.164 25.0553L124.25 26.099L124.322 27.1427L124.351 28.2004L124.365 29.2726L124.351 30.3303L124.322 31.388L124.25 32.4311L124.164 33.4748L124.036 34.504L123.892 35.5331L123.721 36.5477L123.535 37.563L123.321 38.5636L123.077 39.5497L122.805 40.5358L122.519 41.4941L122.204 42.4656L121.876 43.4086L121.518 44.3523L121.132 45.2814L120.731 46.1966L120.301 47.0972L119.858 47.9978L119.4 48.8838L118.914 49.7413L118.413 50.5989L117.884 51.4425L117.34 52.2715L116.768 53.086L116.181 53.8865L115.581 54.6731L114.965 55.4445L114.322 56.188L113.664 56.9316L112.991 57.6599L112.304 58.3604L106.21 52.2715L106.768 51.7142L107.297 51.1423L107.812 50.5558L108.313 49.97L108.814 49.3556L109.286 48.7407L109.744 48.0978L110.187 47.4544L110.63 46.8109L111.045 46.1389L111.446 45.4676L111.818 44.7811L112.19 44.0806L112.548 43.3808L112.876 42.6512L113.191 41.9368L113.492 41.1932L113.778 40.4503L114.05 39.7068L114.293 38.9348L114.522 38.1773L114.737 37.3913L114.922 36.6193L115.094 35.8188L115.251 35.0182L115.381 34.2183L115.495 33.4032L115.595 32.5888L115.666 31.7737L115.709 30.9446L115.752 30.101V29.2726V28.429L115.709 27.5854L115.666 26.7564L115.595 25.9413L115.495 25.1268L115.381 24.3124L115.251 23.5118L115.094 22.7113L114.922 21.9108L114.737 21.1387L114.522 20.3528L114.293 19.5953L114.05 18.8233L113.778 18.0797L113.492 17.3368L113.191 16.5933L112.876 15.8789L112.548 15.1639L112.19 14.4495L111.818 13.749L111.446 13.0631L111.045 12.3911L110.63 11.7192L110.187 11.0757L109.744 10.4329L109.286 9.78939L108.814 9.17505L108.313 8.56009L107.812 7.97425L107.297 7.38779L106.768 6.81652L106.21 6.25855L112.304 0.169689ZM101.36 11.1048L101.79 11.5475L102.218 11.9909L102.619 12.4481L103.02 12.92L103.406 13.4057L103.792 13.8921L104.15 14.3925L104.508 14.9067L104.851 15.4216L105.166 15.9505L105.495 16.4793L105.795 17.0221L106.082 17.5655L106.353 18.1228L106.625 18.6947L106.868 19.2666L107.111 19.8524L107.34 20.4383L107.54 21.0247L107.74 21.6245L107.927 22.2395L108.084 22.8399L108.241 23.4688L108.37 24.0837L108.499 24.7126L108.599 25.3561L108.685 25.9989L108.757 26.6424L108.828 27.2852L108.857 27.9433L108.885 28.6007L108.899 29.2726L108.885 29.9294L108.857 30.5874L108.828 31.2448L108.757 31.8883L108.685 32.5311L108.599 33.1746L108.499 33.8174L108.37 34.447L108.241 35.0613L108.084 35.6902L107.927 36.2906L107.74 36.9049L107.54 37.5053L107.34 38.0918L107.111 38.6776L106.868 39.2641L106.625 39.8354L106.353 40.4073L106.082 40.9646L105.795 41.508L105.495 42.0508L105.166 42.5796L104.851 43.1091L104.508 43.6233L104.15 44.1382L103.792 44.6386L103.406 45.1243L103.02 45.6107L102.619 46.0819L102.218 46.5392L101.79 46.9825L101.36 47.4259L95.2803 41.3503L95.5662 41.0507L95.8375 40.7505L96.11 40.4503L96.3813 40.1356L96.6387 39.8069L96.8821 39.4921L97.1255 39.1495L97.3689 38.8208L97.5832 38.4775L97.812 38.1203L98.0123 37.7625L98.2126 37.4053L98.4129 37.0481L98.5986 36.6769L98.7704 36.2906L98.9422 35.9188L99.0994 35.5331L99.2427 35.1329L99.3859 34.7465L99.5146 34.3463L99.6287 33.9466L99.7434 33.5318L99.8436 33.117L99.9298 32.7028L100.015 32.2886L100.087 31.8598L100.144 31.445L100.187 31.0162L100.23 30.5729L100.259 30.1441L100.273 29.7014L100.287 29.2726L100.273 28.8293L100.259 28.386L100.23 27.9572L100.187 27.5139L100.144 27.0857L100.087 26.6709L100.015 26.2421L99.9298 25.8273L99.8436 25.4125L99.7434 24.9983L99.6287 24.5841L99.5146 24.1838L99.3859 23.7835L99.2427 23.3972L99.0994 22.9969L98.9422 22.6112L98.7704 22.2395L98.5986 21.8538L98.4129 21.482L98.2126 21.1242L98.0123 20.767L97.812 20.4098L97.5832 20.0526L97.3689 19.7099L97.1255 19.3806L96.8821 19.038L96.6387 18.7232L96.3813 18.3945L96.11 18.0797L95.8375 17.7802L95.5662 17.48L95.2803 17.1791L101.36 11.1048Z" fill="#CE2730"/>
<path fill-rule="evenodd" clip-rule="evenodd" d="M4.13454 31.482V27.1785C4.13074 26.6041 4.18081 26.1316 4.27843 25.7516C4.37478 25.3754 4.54213 25.0771 4.77476 24.8592C5.00739 24.6426 5.3256 24.4913 5.72558 24.3982C6.12556 24.3089 6.63013 24.2664 7.23104 24.2702H12.214C12.7883 24.2664 13.2732 24.3051 13.6694 24.3906C14.0687 24.4716 14.3869 24.6192 14.6278 24.8326C14.868 25.0423 15.043 25.3368 15.1514 25.713C15.2604 26.0885 15.3143 26.5692 15.3105 27.1551V31.4586C15.3143 32.0013 15.2718 32.4516 15.1869 32.8082C15.0969 33.161 14.946 33.4403 14.7248 33.6417C14.5035 33.8393 14.1929 33.983 13.7974 34.0641C13.4012 34.1458 12.8967 34.1844 12.2837 34.1806H7.16132C6.38545 34.1882 5.77185 34.1103 5.3294 33.952C4.88759 33.793 4.57699 33.5175 4.39824 33.1217C4.21568 32.7303 4.12693 32.1799 4.13454 31.482ZM19.1759 31.8778V26.8061C19.1759 25.6775 19.0592 24.7395 18.8266 23.9947C18.594 23.2468 18.2365 22.6616 17.7553 22.2309C17.278 21.8002 16.6689 21.4981 15.9355 21.3195C15.1983 21.1416 14.333 21.0561 13.3315 21.0599H6.23015C5.13163 21.0561 4.20427 21.1454 3.44361 21.3354C2.67915 21.5254 2.06619 21.8389 1.60029 22.2733C1.13502 22.7116 0.793361 23.3012 0.583547 24.0416C0.370563 24.7858 0.265339 25.7047 0.269142 26.8061V31.8778C0.265339 32.8544 0.374367 33.6879 0.591787 34.3858C0.808574 35.0876 1.15404 35.6582 1.62755 36.1003C2.09725 36.5417 2.71402 36.8672 3.47087 37.0807C4.23152 37.2903 5.15128 37.391 6.23015 37.391H13.3315C14.4573 37.3948 15.396 37.2941 16.1523 37.0965C16.9053 36.8945 17.5031 36.5765 17.9493 36.1421C18.3918 35.7082 18.7062 35.1382 18.8963 34.4365C19.0865 33.7348 19.1797 32.8817 19.1759 31.8778ZM27.3954 21.2461H23.53V37.391H27.3954V30.4813H29.7471L37.2212 37.391H42.902L33.0065 28.8068L42.5293 21.2461H36.7318L29.6767 27.2716H27.3954V21.2461ZM45.2017 21.2461V37.391H49.0671V24.4564H49.6021L59.3112 37.391H65.9473V21.2461H62.0819V34.1806H61.5469L51.6977 21.2461H45.2017ZM73.9627 31.482V27.1785C73.9583 26.6041 74.009 26.1316 74.106 25.7516C74.2036 25.3754 74.3703 25.0771 74.603 24.8592C74.8356 24.6426 75.1538 24.4913 75.5538 24.3982C75.9531 24.3089 76.4577 24.2664 77.0592 24.2702H82.0422C82.6165 24.2664 83.1014 24.3051 83.4976 24.3906C83.8969 24.4716 84.2151 24.6192 84.4554 24.8326C84.6962 25.0423 84.8712 25.3368 84.9796 25.713C85.088 26.0885 85.1425 26.5692 85.1387 27.1551V31.4586C85.1425 32.0013 85.1 32.4516 85.0144 32.8082C84.9251 33.161 84.7736 33.4403 84.553 33.6417C84.3317 33.8393 84.0211 33.983 83.625 34.0641C83.2294 34.1458 82.7249 34.1844 82.1119 34.1806H76.9895C76.213 34.1882 75.6001 34.1103 75.1576 33.952C74.7158 33.793 74.4045 33.5175 74.2264 33.1217C74.0445 32.7303 73.9545 32.1799 73.9627 31.482ZM89.0041 31.8778V26.8061C89.0041 25.6775 88.8874 24.7395 88.6542 23.9947C88.4215 23.2468 88.0647 22.6616 87.5835 22.2309C87.1062 21.8002 86.4971 21.4981 85.7637 21.3195C85.0265 21.1416 84.1612 21.0561 83.1591 21.0599H76.0577C74.9598 21.0561 74.0325 21.1454 73.2718 21.3354C72.5073 21.5254 71.8944 21.8389 71.4285 22.2733C70.9626 22.7116 70.6216 23.3012 70.4117 24.0416C70.1988 24.7858 70.0935 25.7047 70.098 26.8061V31.8778C70.0935 32.8544 70.2026 33.6879 70.4193 34.3858C70.6368 35.0876 70.9822 35.6582 71.4557 36.1003C71.9255 36.5417 72.5422 36.8672 73.2991 37.0807C74.0597 37.2903 74.9795 37.391 76.0577 37.391H83.1591C84.2848 37.3948 85.2243 37.2941 85.9811 37.0965C86.7335 36.8945 87.3313 36.5765 87.7775 36.1421C88.22 35.7082 88.5344 35.1382 88.7245 34.4365C88.9147 33.7348 89.0079 32.8817 89.0041 31.8778ZM214.491 31.482V27.1785C214.486 26.6041 214.537 26.1316 214.634 25.7516C214.731 25.3754 214.898 25.0771 215.131 24.8592C215.364 24.6426 215.682 24.4913 216.082 24.3982C216.481 24.3089 216.986 24.2664 217.587 24.2702H222.57C223.144 24.2664 223.629 24.3051 224.025 24.3906C224.425 24.4716 224.743 24.6192 224.984 24.8326C225.224 25.0423 225.399 25.3368 225.508 25.713C225.616 26.0885 225.67 26.5692 225.667 27.1551V31.4586C225.67 32.0013 225.628 32.4516 225.542 32.8082C225.453 33.161 225.302 33.4403 225.08 33.6417C224.859 33.8393 224.549 33.983 224.153 34.0641C223.757 34.1458 223.253 34.1844 222.639 34.1806H217.517C216.741 34.1882 216.128 34.1103 215.686 33.952C215.243 33.793 214.933 33.5175 214.754 33.1217C214.572 32.7303 214.482 32.1799 214.491 31.482ZM229.531 31.8778V26.8061C229.531 25.6775 229.415 24.7395 229.183 23.9947C228.95 23.2468 228.593 22.6616 228.112 22.2309C227.634 21.8002 227.024 21.4981 226.291 21.3195C225.554 21.1416 224.689 21.0561 223.688 21.0599H216.586C215.488 21.0561 214.56 21.1454 213.8 21.3354C213.035 21.5254 212.422 21.8389 211.956 22.2733C211.491 22.7116 211.149 23.3012 210.94 24.0416C210.727 24.7858 210.621 25.7047 210.625 26.8061V31.8778C210.621 32.8544 210.73 33.6879 210.947 34.3858C211.165 35.0876 211.51 35.6582 211.984 36.1003C212.453 36.5417 213.07 36.8672 213.827 37.0807C214.587 37.2903 215.507 37.391 216.586 37.391H223.688C224.813 37.3948 225.752 37.2941 226.508 37.0965C227.261 36.8945 227.859 36.5765 228.305 36.1421C228.748 35.7082 229.062 35.1382 229.252 34.4365C229.443 33.7348 229.535 32.8817 229.531 31.8778ZM206.081 21.2461H202.216V37.391H206.081V21.2461ZM182.636 34.1806V24.4564H189.598C190.301 24.4564 190.879 24.5147 191.336 24.6306C191.794 24.7471 192.152 24.9181 192.411 25.1468C192.671 25.3792 192.853 25.6623 192.962 26.0075C193.067 26.3488 193.118 26.7478 193.113 27.2013V31.4358C193.118 31.9165 193.071 32.3313 192.97 32.6803C192.873 33.0254 192.695 33.3123 192.439 33.5334C192.186 33.7538 191.825 33.9165 191.367 34.0217C190.906 34.13 190.316 34.1806 189.598 34.1806H182.636ZM178.771 21.2461V37.391H191.274C192.314 37.391 193.195 37.2783 193.925 37.0458C194.65 36.8128 195.24 36.4562 195.69 35.9717C196.141 35.4872 196.466 34.8665 196.672 34.1148C196.882 33.3586 196.982 32.4592 196.979 31.4123V27.1316C196.982 25.7161 196.781 24.5806 196.373 23.7116C195.966 22.8471 195.341 22.2195 194.495 21.8237C193.649 21.4323 192.567 21.2385 191.251 21.2461H178.771ZM154.962 21.2461V31.6448C154.958 33.5948 155.444 35.0413 156.425 35.9837C157.407 36.9255 158.912 37.3948 160.946 37.391H168.047C169.087 37.3948 169.976 37.2941 170.71 37.0921C171.443 36.8869 172.04 36.5613 172.499 36.1155C172.957 35.6652 173.294 35.0724 173.508 34.3396C173.721 33.603 173.826 32.7075 173.822 31.6448V21.2461H169.957V31.2489C169.957 31.9823 169.856 32.5637 169.65 32.99C169.448 33.4206 169.134 33.7265 168.719 33.9127C168.304 34.0951 167.776 34.1844 167.139 34.1806H161.808C161.117 34.1844 160.554 34.0989 160.116 33.9241C159.673 33.7462 159.347 33.4441 159.138 33.0172C158.928 32.5948 158.827 32.0134 158.827 31.2724V21.2461H154.962ZM134.718 37.391L136.813 33.3199H146.383L148.455 37.391H152.995L144.497 21.2461H138.769L130.201 37.391H134.718ZM138.373 30.2723L141.563 24.2702H141.749L144.823 30.2723H138.373Z" fill="white"/>
</svg>
