<svg width="480" height="126" viewBox="0 0 480 126" fill="none" xmlns="http://www.w3.org/2000/svg">
<g clip-path="url(#clip0_2030_124)">
<path d="M393.94 20.3188L354.806 103.252H372.632L411.825 20.3188H393.94Z" fill="white"/>
<path d="M469.848 80.5642C464.653 87.1989 456.803 91.464 448.008 91.464C432.425 91.464 419.793 78.1946 419.793 61.8449C419.793 45.4951 432.425 32.2257 448.008 32.2257C457.275 32.2257 465.539 36.9055 470.674 44.1918L480.059 33.7066C476.577 29.5007 472.268 25.9464 467.191 23.3399C446.591 12.7955 421.092 21.4443 410.29 42.7109C399.488 63.9774 407.398 89.8054 427.998 100.35C445.293 109.176 465.952 104.556 478.583 90.2793L469.848 80.5642Z" fill="white"/>
<path d="M0 20.6742H9.5032V55.5064H54.6581V20.6742H64.1613V102.364H54.6581V64.2144H9.5032V102.364H0V20.6742Z" fill="white"/>
<path d="M131.746 42.0592L102.469 110.776C100.167 116.048 97.3928 119.898 94.0873 122.327C90.7819 124.756 86.8861 126 82.3411 126C79.3308 126 76.2614 125.585 73.1921 124.756V116.7C76.2614 117.114 78.6815 117.292 80.3933 117.292C83.4626 117.292 86.1188 116.581 88.2437 115.159C90.3687 113.738 92.2575 111.25 93.7922 107.636L96.9796 100.468L72.3657 42.0592H82.5182L102.174 90.1016L121.771 42.0592H131.746Z" fill="white"/>
<path d="M185.519 44.8434C190.005 47.6277 193.488 51.3597 196.026 56.158C198.564 60.9563 199.803 66.2877 199.803 72.0931C199.803 77.9577 198.505 83.2892 195.967 88.1467C193.429 92.945 189.887 96.7955 185.401 99.5205C180.915 102.305 175.898 103.667 170.408 103.667C166.04 103.667 161.909 102.779 158.013 101.001C154.176 99.2243 150.989 96.7955 148.569 93.6559V124.578H139.184V42.0592H147.978V51.7151C150.28 48.2793 153.409 45.5543 157.423 43.5994C161.436 41.6446 165.804 40.6968 170.408 40.6968C176.016 40.756 181.092 42.1185 185.519 44.8434ZM179.853 91.9972C183.04 90.0423 185.578 87.3766 187.408 83.8815C189.238 80.3865 190.123 76.536 190.123 72.2708C190.123 68.0057 189.238 64.0959 187.408 60.6601C185.578 57.2243 183.04 54.4993 179.853 52.4852C176.665 50.5303 173.065 49.5233 169.051 49.5233C165.45 49.5233 162.145 50.3526 159.016 52.0113C155.888 53.67 153.35 56.158 151.402 59.5346C149.454 62.9112 148.451 67.1171 148.451 72.1523C148.451 77.1876 149.395 81.3935 151.343 84.8293C153.232 88.2652 155.77 90.8124 158.898 92.4119C162.027 94.0705 165.45 94.8999 169.11 94.8999C173.065 94.8999 176.665 93.9521 179.853 91.9972Z" fill="white"/>
<path d="M262.666 75.1143H215.681C216.271 81.0381 218.573 85.8364 222.646 89.4499C226.719 93.0635 231.677 94.8999 237.521 94.8999C244.25 94.8999 250.33 92.1749 255.701 86.725L261.19 93.182C258.121 96.4993 254.52 99.0466 250.507 100.942C246.493 102.838 242.125 103.726 237.403 103.726C231.559 103.726 226.247 102.364 221.407 99.5797C216.626 96.7955 212.848 93.0635 210.074 88.2652C207.299 83.4669 205.942 78.1354 205.942 72.3301C205.942 66.5839 207.3 61.2525 209.956 56.4542C212.612 51.6559 216.271 47.8054 220.935 45.0212C225.598 42.237 230.674 40.8152 236.281 40.8152C241.299 40.8152 245.903 42 250.093 44.2511C254.225 46.5614 257.472 49.7602 259.833 53.9069C262.194 58.0536 263.374 62.7334 263.374 68.0057C263.374 70.2567 263.138 72.6262 262.666 75.1143ZM236.045 49.4048C231.087 49.4048 226.778 51.0042 223.118 54.1439C219.459 57.3428 217.098 61.4894 216.035 66.7024H253.753C253.694 61.3117 251.923 57.1058 248.559 54.0254C245.194 50.945 241.003 49.4048 236.045 49.4048Z" fill="white"/>
<path d="M350.733 95.6107L364.309 66.8801V20.3188H350.733L349.493 20.6149L324.998 58.5275L300.62 20.8519L299.971 20.3188H286.395V103.252H299.971V44.8434L324.702 83.1707H325.293L350.733 43.7179V95.6107Z" fill="white"/>
<path d="M403.561 0L398.426 10.8406H416.252L421.387 0H403.561Z" fill="white"/>
</g>
<defs>
<clipPath id="clip0_2030_124">
<rect width="480" height="126" fill="white"/>
</clipPath>
</defs>
</svg>
