<svg width="78" height="362" viewBox="0 0 78 362" fill="none" xmlns="http://www.w3.org/2000/svg">
<line x1="23" y1="211" x2="51" y2="211" stroke="#686863"/>
<line x1="23" y1="201" x2="32" y2="201" stroke="#686863"/>
<line x1="18" y1="181" x2="22" y2="181" stroke="#686863"/>
<line x1="23" y1="151" x2="51" y2="151" stroke="#686863"/>
<line x1="23" y1="161" x2="32" y2="161" stroke="#686863"/>
<line x1="23" y1="221" x2="32" y2="221" stroke="#50504B"/>
<line x1="18" y1="241" x2="22" y2="241" stroke="#50504B"/>
<line x1="23" y1="141" x2="32" y2="141" stroke="#50504B"/>
<line x1="18" y1="121" x2="22" y2="121" stroke="#50504B"/>
<line x1="23" y1="271" x2="51" y2="271" stroke="#3C3C38"/>
<line x1="23" y1="261" x2="32" y2="261" stroke="#3C3C38"/>
<line x1="23" y1="91" x2="51" y2="91" stroke="#3C3C38"/>
<line x1="23" y1="101" x2="32" y2="101" stroke="#3C3C38"/>
<line x1="23" y1="281" x2="32" y2="281" stroke="#3E3E39"/>
<line x1="18" y1="301" x2="22" y2="301" stroke="#3E3E39"/>
<line x1="23" y1="81" x2="32" y2="81" stroke="#3E3E39"/>
<line x1="18" y1="61" x2="22" y2="61" stroke="#3E3E39"/>
<line x1="23" y1="331" x2="51" y2="331" stroke="#2A292E"/>
<line x1="23" y1="321" x2="32" y2="321" stroke="#2A292E"/>
<line x1="23" y1="31" x2="51" y2="31" stroke="#2A292E"/>
<line x1="23" y1="41" x2="32" y2="41" stroke="#2A292E"/>
<line x1="23" y1="341" x2="32" y2="341" stroke="#252323"/>
<line x1="18" y1="361" x2="22" y2="361" stroke="#252323"/>
<line x1="23" y1="21" x2="32" y2="21" stroke="#252323"/>
<line x1="18" y1="1" x2="22" y2="1" stroke="#252323"/>
<path d="M11.1926 180.262C11.6263 180.658 11.6263 181.342 11.1926 181.738L4.67471 187.696C4.03298 188.283 3 187.828 3 186.958L3 175.042C3 174.172 4.03298 173.717 4.67471 174.304L11.1926 180.262Z" fill="#CE2730"/>
<path d="M66.8074 181.738C66.3737 181.342 66.3737 180.658 66.8074 180.262L73.3253 174.304C73.967 173.717 75 174.172 75 175.042V186.958C75 187.828 73.967 188.283 73.3253 187.696L66.8074 181.738Z" fill="#CE2730"/>
</svg>
