<svg width="58" height="59" viewBox="0 0 58 59" fill="none" xmlns="http://www.w3.org/2000/svg">
<g clip-path="url(#clip0_2030_163)">
<path d="M29 0C13 0 0 13.2241 0 29.5C0 45.7759 13 59 29 59C45 59 58 45.7759 58 29.5C58 13.2241 45 0 29 0ZM29 56.5586C14.32 56.5586 2.4 44.4331 2.4 29.5C2.4 14.5669 14.32 2.44138 29 2.44138C43.68 2.44138 55.6 14.5669 55.6 29.5C55.6 44.4331 43.68 56.5586 29 56.5586Z" fill="url(#paint0_linear_2030_163)"/>
<path d="M44.4399 10.091C43.7199 10.091 42.9999 10.2945 42.9999 10.2945L40.3999 12.7765L40.1999 13.7531L40.6799 14.5262L29.3199 26.8552L28.2799 26.0007C28.2799 26.0007 24.7599 23.4372 22.5199 25.7159C20.4399 27.791 21.5599 28.32 19.1199 29.9883C16.6799 31.6565 13.2799 30.5172 8.91991 36.1731C7.23991 38.3703 7.83991 42.8869 11.4799 46.7524L11.4399 46.7931L12.1599 47.4848L12.6799 47.9731L13.3999 48.6648L13.4399 48.6241C17.5199 52.0014 21.4799 52.7745 24.0799 50.3331C29.2399 45.4503 27.7999 42.0731 29.2399 39.469C30.6399 36.8648 31.0799 37.7193 33.1199 35.6441C35.7599 32.9993 32.3199 29.8255 32.3199 29.8255L31.4399 29.0524L42.3999 16.2759L43.1999 16.5607L44.2799 16.2352L46.3999 13.4683C46.3999 13.4683 46.5199 12.8986 46.4799 11.9628C46.4399 11.1083 45.1599 10.0503 44.4399 10.091Z" fill="url(#paint1_linear_2030_163)"/>
</g>
<defs>
<linearGradient id="paint0_linear_2030_163" x1="29" y1="0" x2="29" y2="59" gradientUnits="userSpaceOnUse">
<stop stop-color="white"/>
<stop offset="0.310051" stop-color="#9D9D9D"/>
<stop offset="0.540051" stop-color="white"/>
<stop offset="1" stop-color="#6E6E6E"/>
</linearGradient>
<linearGradient id="paint1_linear_2030_163" x1="27.2572" y1="10.0899" x2="27.2572" y2="51.7591" gradientUnits="userSpaceOnUse">
<stop stop-color="white"/>
<stop offset="0.310051" stop-color="#9D9D9D"/>
<stop offset="0.540051" stop-color="white"/>
<stop offset="1" stop-color="#6E6E6E"/>
</linearGradient>
<clipPath id="clip0_2030_163">
<rect width="58" height="59" fill="white"/>
</clipPath>
</defs>
</svg>
