<svg width="59" height="59" viewBox="0 0 59 59" fill="none" xmlns="http://www.w3.org/2000/svg">
<g clip-path="url(#clip0_2030_156)">
<path d="M29.5 0C13.2241 0 0 13.2241 0 29.5C0 45.7759 13.2241 59 29.5 59C45.7759 59 59 45.7759 59 29.5C59 13.2241 45.7759 0 29.5 0ZM29.5 56.5586C14.5669 56.5586 2.44138 44.4331 2.44138 29.5C2.44138 14.5669 14.5669 2.44138 29.5 2.44138C44.4331 2.44138 56.5586 14.5669 56.5586 29.5C56.5586 44.4331 44.4331 56.5586 29.5 56.5586Z" fill="url(#paint0_linear_2030_156)"/>
<path d="M29.5 30.68C31.7247 30.68 33.5282 28.8765 33.5282 26.6517C33.5282 24.427 31.7247 22.6234 29.5 22.6234C27.2752 22.6234 25.4717 24.427 25.4717 26.6517C25.4717 28.8765 27.2752 30.68 29.5 30.68Z" fill="url(#paint1_linear_2030_156)"/>
<path d="M29.5001 9.15517C18.2698 9.15517 9.15527 18.2696 9.15527 29.5C9.15527 33.569 10.376 37.5159 12.6139 40.8931C13.0615 41.5441 13.9567 41.7069 14.6077 41.2593C15.2587 40.8117 15.4215 39.9165 14.9739 39.2655C13.0208 36.3765 12.0035 32.9993 12.0035 29.5C12.0035 19.8565 19.8567 12.0034 29.5001 12.0034C39.1436 12.0034 46.9967 19.8565 46.9967 29.5C46.9967 32.9993 45.9794 36.3765 44.0263 39.2655C43.5787 39.9165 43.7415 40.8117 44.3925 41.2593C44.6367 41.4221 44.9215 41.5034 45.2063 41.5034C45.6539 41.5034 46.1015 41.3 46.3863 40.8931C48.6649 37.5159 49.8449 33.6096 49.8449 29.5C49.8449 18.2696 40.7304 9.15517 29.5001 9.15517Z" fill="url(#paint2_linear_2030_156)"/>
<path d="M29.5002 15.869C21.9726 15.869 15.8691 21.9724 15.8691 29.5C15.8691 31.86 16.4795 34.1793 17.6188 36.2138C17.9443 36.7835 18.6767 36.9869 19.2871 36.6614C19.8567 36.3359 20.0602 35.6035 19.7347 34.9931C18.7988 33.3248 18.2698 31.4124 18.2698 29.5C18.3105 23.3152 23.3153 18.3104 29.5002 18.3104C35.685 18.3104 40.6898 23.3152 40.6898 29.5C40.6898 31.4124 40.2016 33.3248 39.225 34.9931C38.8995 35.5628 39.1029 36.3359 39.6726 36.6614C39.876 36.7835 40.0795 36.8241 40.2829 36.8241C40.6898 36.8241 41.1374 36.6207 41.3409 36.2138C42.4802 34.1793 43.0905 31.86 43.0905 29.5C43.1312 21.9724 37.0278 15.869 29.5002 15.869Z" fill="url(#paint3_linear_2030_156)"/>
<path d="M29.4999 32.8772C27.5468 32.8772 25.9599 34.4641 26.0006 36.3766L24.373 49.031C24.373 51.4724 25.9599 52.571 29.5406 52.571C33.1213 52.571 34.7082 51.4724 34.6675 49.031L33.0399 36.4579C33.0399 34.4641 31.453 32.8772 29.4999 32.8772Z" fill="url(#paint4_linear_2030_156)"/>
</g>
<defs>
<linearGradient id="paint0_linear_2030_156" x1="29.5" y1="0" x2="29.5" y2="59" gradientUnits="userSpaceOnUse">
<stop stop-color="white"/>
<stop offset="0.310051" stop-color="#9D9D9D"/>
<stop offset="0.540051" stop-color="white"/>
<stop offset="1" stop-color="#6E6E6E"/>
</linearGradient>
<linearGradient id="paint1_linear_2030_156" x1="29.5" y1="22.6234" x2="29.5" y2="30.68" gradientUnits="userSpaceOnUse">
<stop stop-color="white"/>
<stop offset="0.310051" stop-color="#9D9D9D"/>
<stop offset="0.540051" stop-color="white"/>
<stop offset="1" stop-color="#6E6E6E"/>
</linearGradient>
<linearGradient id="paint2_linear_2030_156" x1="29.5001" y1="9.15517" x2="29.5001" y2="41.5119" gradientUnits="userSpaceOnUse">
<stop stop-color="white"/>
<stop offset="0.310051" stop-color="#9D9D9D"/>
<stop offset="0.540051" stop-color="white"/>
<stop offset="1" stop-color="#6E6E6E"/>
</linearGradient>
<linearGradient id="paint3_linear_2030_156" x1="29.4799" y1="15.869" x2="29.4799" y2="36.8241" gradientUnits="userSpaceOnUse">
<stop stop-color="white"/>
<stop offset="0.310051" stop-color="#9D9D9D"/>
<stop offset="0.540051" stop-color="white"/>
<stop offset="1" stop-color="#6E6E6E"/>
</linearGradient>
<linearGradient id="paint4_linear_2030_156" x1="29.5207" y1="32.8772" x2="29.5207" y2="52.571" gradientUnits="userSpaceOnUse">
<stop stop-color="white"/>
<stop offset="0.310051" stop-color="#9D9D9D"/>
<stop offset="0.540051" stop-color="white"/>
<stop offset="1" stop-color="#6E6E6E"/>
</linearGradient>
<clipPath id="clip0_2030_156">
<rect width="59" height="59" fill="white"/>
</clipPath>
</defs>
</svg>
