<svg width="58" height="59" viewBox="0 0 58 59" fill="none" xmlns="http://www.w3.org/2000/svg">
<g clip-path="url(#clip0_2030_151)">
<path d="M29.2 7.52759C25.8 7.52759 23 10.3759 23 13.8345V24.6172H35.4V13.8345C35.4 10.3759 32.6 7.52759 29.2 7.52759Z" fill="url(#paint0_linear_2030_151)"/>
<path d="M23 38.6552C23 42.1138 25.8 44.9621 29.2 44.9621C32.6 44.9621 35.4 42.1138 35.4 38.6552V27.8724H23V38.6552Z" fill="url(#paint1_linear_2030_151)"/>
<path d="M29 0C13 0 0 13.2241 0 29.5C0 45.7759 13 59 29 59C45 59 58 45.7759 58 29.5C58 13.2241 45 0 29 0ZM30.2 56.5179V49.8448C35.6 49.2345 39.8 44.5552 39.8 38.94V31.5345C39.8 31.5345 39.8 30.3138 38.8 30.3138C37.8 30.3138 37.8 31.5345 37.8 31.5345V38.7772C37.8 43.7007 33.84 47.729 29 47.729C24.16 47.729 20.2 43.7007 20.2 38.7772V31.5345C20.2 31.5345 20.2 30.3138 19.16 30.3138C18.2 30.3138 18.2 31.5345 18.2 31.5345V38.94C18.2 44.5552 22.4 49.2345 27.8 49.8448V56.5179C13.68 55.8669 2.4 44.0262 2.4 29.5C2.4 14.5669 14.32 2.44138 29 2.44138C43.68 2.44138 55.6 14.5669 55.6 29.5C55.6 44.0262 44.32 55.8669 30.2 56.5179Z" fill="url(#paint2_linear_2030_151)"/>
</g>
<defs>
<linearGradient id="paint0_linear_2030_151" x1="29.2" y1="7.52759" x2="29.2" y2="24.6172" gradientUnits="userSpaceOnUse">
<stop stop-color="white"/>
<stop offset="0.310051" stop-color="#9D9D9D"/>
<stop offset="0.540051" stop-color="white"/>
<stop offset="1" stop-color="#6E6E6E"/>
</linearGradient>
<linearGradient id="paint1_linear_2030_151" x1="29.2" y1="27.8724" x2="29.2" y2="44.9621" gradientUnits="userSpaceOnUse">
<stop stop-color="white"/>
<stop offset="0.310051" stop-color="#9D9D9D"/>
<stop offset="0.540051" stop-color="white"/>
<stop offset="1" stop-color="#6E6E6E"/>
</linearGradient>
<linearGradient id="paint2_linear_2030_151" x1="29" y1="0" x2="29" y2="59" gradientUnits="userSpaceOnUse">
<stop stop-color="white"/>
<stop offset="0.310051" stop-color="#9D9D9D"/>
<stop offset="0.540051" stop-color="white"/>
<stop offset="1" stop-color="#6E6E6E"/>
</linearGradient>
<clipPath id="clip0_2030_151">
<rect width="58" height="59" fill="white"/>
</clipPath>
</defs>
</svg>
