<svg width="53" height="52" viewBox="0 0 53 52" fill="none" xmlns="http://www.w3.org/2000/svg">
<path d="M26.4758 21.5475C28.9588 21.541 30.9348 19.5455 30.9283 17.056C30.9218 14.5665 28.9393 12.584 26.4563 12.584C23.9538 12.584 21.9518 14.599 21.9713 17.108C21.9843 19.591 23.9863 21.5605 26.4758 21.5475Z" fill="#161719"/>
<path d="M26.4497 0C12.0912 0 0.449707 11.6415 0.449707 26C0.449707 40.3585 12.0912 52 26.4497 52C40.8082 52 52.4497 40.3585 52.4497 26C52.4497 11.6415 40.8082 0 26.4497 0ZM26.4887 7.904C31.5522 7.917 35.6147 12.0575 35.5887 17.1795C35.5627 22.1845 31.4287 26.234 26.3782 26.221C21.3732 26.2015 17.2717 22.0545 17.2977 17.043C17.3302 11.9795 21.4317 7.891 26.4887 7.904ZM36.7457 29.822C35.6277 30.9725 34.2757 31.8045 32.7807 32.383C31.3637 32.929 29.8167 33.2085 28.2827 33.3905C28.5167 33.644 28.6272 33.7675 28.7702 33.9105C30.8502 36.0035 32.9497 38.09 35.0232 40.1895C35.7317 40.9045 35.8812 41.795 35.4912 42.627C35.0687 43.537 34.1132 44.135 33.1772 44.07C32.5857 44.031 32.1242 43.732 31.7147 43.3225C30.1417 41.743 28.5427 40.1895 27.0022 38.5775C26.5537 38.1095 26.3392 38.2005 25.9427 38.6035C24.3632 40.235 22.7512 41.834 21.1392 43.4265C20.4112 44.1415 19.5467 44.2715 18.7082 43.862C17.8112 43.4265 17.2457 42.5165 17.2847 41.5935C17.3172 40.976 17.6227 40.495 18.0452 40.0725C20.1057 38.012 22.1662 35.9515 24.2202 33.8845C24.3567 33.748 24.4867 33.605 24.6817 33.3905C21.8737 33.098 19.3452 32.409 17.1807 30.7125C16.9142 30.5045 16.6347 30.2965 16.3877 30.0625C15.4387 29.1525 15.3412 28.106 16.0952 27.0335C16.7387 26.117 17.8112 25.87 18.9357 26.3965C19.1502 26.5005 19.3582 26.624 19.5597 26.7605C23.5962 29.536 29.1407 29.6075 33.1902 26.884C33.5932 26.5785 34.0222 26.325 34.5162 26.2015C35.4847 25.9545 36.3817 26.3055 36.9017 27.157C37.4802 28.1255 37.4737 29.068 36.7457 29.822Z" fill="#161719"/>
</svg>
