<svg width="53" height="52" viewBox="0 0 53 52" fill="none" xmlns="http://www.w3.org/2000/svg">
<path d="M52.4497 26C52.4497 40.3585 40.8082 52 26.4497 52C12.0912 52 0.449707 40.3585 0.449707 26C0.449707 11.6415 12.0912 0 26.4497 0C40.8082 0 52.4497 11.6415 52.4497 26ZM27.3792 19.1945C24.8507 20.2475 19.7937 22.425 12.2147 25.727C10.9862 26.2145 10.3362 26.6955 10.2777 27.1635C10.1802 27.9565 11.1747 28.2685 12.5202 28.691L13.0922 28.873C14.4182 29.3085 16.2057 29.809 17.1287 29.8285C17.9737 29.848 18.9162 29.5035 19.9497 28.7885C27.0347 24.0045 30.6942 21.593 30.9217 21.541C31.0842 21.502 31.3117 21.4565 31.4612 21.593C31.6172 21.723 31.5977 21.983 31.5847 22.048C31.4872 22.4705 27.5937 26.078 25.5852 27.9565C24.9612 28.5415 24.5127 28.9575 24.4217 29.0485C24.2202 29.2565 24.0187 29.458 23.8107 29.653C22.5757 30.8425 21.6527 31.733 23.8627 33.189C24.9287 33.891 25.7737 34.463 26.6252 35.048C27.5482 35.6785 28.4712 36.3025 29.6672 37.089C29.9727 37.284 30.2587 37.492 30.5447 37.7C31.6237 38.467 32.5922 39.156 33.7817 39.0455C34.4772 38.9805 35.1987 38.3305 35.5562 36.3805C36.4207 31.772 38.1107 21.801 38.5007 17.6865C38.5267 17.342 38.5072 17.004 38.4617 16.6595C38.4292 16.3865 38.2992 16.133 38.0912 15.951C37.7987 15.7495 37.4412 15.639 37.0837 15.6455C36.1022 15.6715 34.6007 16.1915 27.3792 19.1945Z" fill="#161719"/>
</svg>
