<svg width="52" height="52" viewBox="0 0 52 52" fill="none" xmlns="http://www.w3.org/2000/svg">
<path d="M25.9441 0.164795C11.6766 0.164795 0.108887 11.7325 0.108887 26C0.108887 40.2675 11.6766 51.8352 25.9441 51.8352C40.2116 51.8352 51.7793 40.2675 51.7793 26C51.7793 11.7325 40.2116 0.164795 25.9441 0.164795ZM39.049 28.7966C40.2503 29.9721 41.5292 31.0766 42.6078 32.3748C43.0857 32.9497 43.5378 33.5439 43.8802 34.2091C44.371 35.1586 43.9254 36.2049 43.0728 36.263H37.7831C36.4138 36.3793 35.3287 35.8238 34.4116 34.8873C33.6817 34.1445 32.9971 33.3501 32.2931 32.575C32.0024 32.2586 31.6989 31.9615 31.3372 31.7289C30.6138 31.2575 29.9873 31.406 29.5739 32.1552C29.1541 32.9238 29.0572 33.7699 29.0185 34.6289C28.9603 35.8755 28.5857 36.2049 27.3327 36.263C24.6588 36.3857 22.1205 35.9853 19.7566 34.6354C17.6768 33.447 16.0621 31.7677 14.6606 29.8623C11.9285 26.155 9.83584 22.086 7.94987 17.9007C7.52359 16.9577 7.83361 16.4539 8.87348 16.4345C10.598 16.4022 12.3289 16.4022 14.0534 16.4345C14.7574 16.4474 15.2225 16.8479 15.4937 17.5131C16.4303 19.8125 17.5735 21.9955 19.0073 24.0236C19.3884 24.5661 19.7824 25.1022 20.3378 25.4833C20.9514 25.9031 21.4165 25.7675 21.7071 25.0828C21.8944 24.6501 21.9719 24.1851 22.0107 23.7136C22.1463 22.1182 22.1657 20.5229 21.9267 18.9276C21.7782 17.9329 21.2162 17.2871 20.228 17.0998C19.7243 17.0029 19.7953 16.8156 20.0407 16.5314C20.467 16.0341 20.8675 15.724 21.6684 15.724H27.6492C28.5922 15.9113 28.8053 16.3312 28.928 17.2806L28.9345 23.9267C28.9216 24.2949 29.1218 25.3799 29.7806 25.6254C30.3102 25.7998 30.659 25.3735 30.9755 25.0441C32.4093 23.5198 33.4298 21.7243 34.347 19.8641C34.7539 19.0439 35.0962 18.1978 35.4385 17.3452C35.6904 16.7187 36.0844 16.4087 36.7884 16.4151L42.5496 16.4216C42.7176 16.4216 42.892 16.4216 43.0599 16.4539C44.0287 16.6218 44.2935 17.0352 43.9964 17.9846C43.5249 19.4701 42.6078 20.7102 41.71 21.9503C40.7476 23.2808 39.7207 24.5661 38.7713 25.8966C37.8929 27.1174 37.9639 27.7309 39.049 28.7966Z" fill="#161719"/>
</svg>
