<svg width="53" height="52" viewBox="0 0 53 52" fill="none" xmlns="http://www.w3.org/2000/svg">
<path d="M23.1719 30.9733L31.6329 26.013L23.1719 21.0461V30.9733Z" fill="#161719"/>
<path d="M26.6145 0.164795C12.347 0.164795 0.779297 11.7325 0.779297 26C0.779297 40.2675 12.347 51.8352 26.6145 51.8352C40.882 51.8352 52.4497 40.2675 52.4497 26C52.4497 11.7325 40.882 0.164795 26.6145 0.164795ZM39.5321 30.6245C39.5321 35.0746 35.082 35.0746 35.082 35.0746H18.147C13.6969 35.0746 13.6969 30.6245 13.6969 30.6245V21.3884C13.6969 16.9383 18.147 16.9383 18.147 16.9383H35.082C39.5321 16.9383 39.5321 21.3884 39.5321 21.3884V30.6245Z" fill="#161719"/>
</svg>
