<svg width="214" height="54" viewBox="0 0 214 54" fill="none" xmlns="http://www.w3.org/2000/svg">
<g clip-path="url(#clip0_56_887)">
<path d="M104.571 0.0108337L105.192 0.672058L105.813 1.33328L106.435 2.03859L107.056 2.7439L107.633 3.4492L108.21 4.19859L108.742 4.94798L109.275 5.69736L109.763 6.44675L110.251 7.24022L110.739 8.03369L111.183 8.82716L111.627 9.66471L112.026 10.5023L112.426 11.3398L112.781 12.1774L113.136 13.059L113.491 13.9406L113.802 14.8223L114.112 15.7039L114.379 16.5855L114.645 17.4672L114.867 18.3929L115.089 19.3186L115.266 20.2443L115.444 21.17L115.577 22.1398L115.71 23.1096L115.799 24.0794L115.888 25.0492L115.932 26.019V27.0329V28.0027L115.888 28.9725L115.799 29.9423L115.71 30.9121L115.577 31.8819L115.444 32.8517L115.266 33.7774L115.089 34.7031L114.867 35.6288L114.645 36.5545L114.379 37.4802L114.112 38.3619L113.802 39.2435L113.491 40.1251L113.136 41.0068L112.781 41.8884L112.426 42.7259L112.026 43.5635L111.627 44.401L111.183 45.2386L110.739 46.0321L110.251 46.8255L109.763 47.619L109.275 48.3684L108.742 49.1178L108.21 49.8672L107.633 50.6165L107.056 51.2778L106.435 51.9831L105.813 52.6884L105.236 53.3496L104.615 54.0108L98.89 48.3684L99.4226 47.8394L99.9107 47.3104L100.399 46.7814L100.887 46.2525L101.375 45.6794L101.819 45.1063L102.263 44.4892L102.662 43.8721L103.062 43.2549L103.461 42.6378L103.816 42.0206L104.171 41.4035L104.526 40.7423L104.881 40.081L105.192 39.4198L105.503 38.7586L105.769 38.0533L106.035 37.348L106.301 36.6427L106.523 35.9374L106.745 35.2321L106.967 34.4827L107.145 33.7774L107.322 33.028L107.455 32.2786L107.588 31.5292L107.677 30.7798L107.766 30.0304L107.855 29.281L107.899 28.5317L107.944 27.7382V26.9888V26.1953L107.899 25.4019L107.855 24.6525L107.766 23.9031L107.677 23.1537L107.588 22.4043L107.455 21.6549L107.322 20.9055L107.145 20.1561L106.967 19.4508L106.745 18.7014L106.523 17.9961L106.301 17.2908L106.035 16.5855L105.769 15.8802L105.503 15.1749L105.103 14.5578L104.793 13.8965L104.482 13.2353L104.127 12.5741L103.772 11.957L103.417 11.3398L103.017 10.7227L102.618 10.1055L102.218 9.48838L101.775 8.87124L101.331 8.29818L100.843 7.72512L100.355 7.19614L99.8664 6.66716L99.3782 6.13818L98.8456 5.6092L104.571 0.0108337ZM94.3632 10.1496L94.7627 10.5463L95.1621 10.9431L95.5171 11.3839L95.8722 11.8247L96.2272 12.2655L96.5822 12.7063L96.9373 13.1912L97.2923 13.6761L97.603 14.161L97.9136 14.6459L98.2243 15.1308L98.4906 15.6157L98.7569 16.1006L99.0231 16.6296L99.2894 17.1586L99.5113 17.6876L99.7332 18.2165L99.9551 18.7455L100.133 19.2745L100.31 19.8476L100.488 20.4206L100.621 20.9937L100.754 21.5668L100.887 22.1398L101.02 22.7129L101.109 23.33L101.198 23.9472L101.287 24.5643L101.375 25.1814L101.42 25.7986L101.464 26.4157V27.0329V27.65L101.375 28.2231L101.331 28.8402L101.287 29.4574L101.198 30.0745L101.109 30.6917L101.02 31.3088L100.887 31.8819L100.754 32.4549L100.621 33.028L100.488 33.5129L100.31 34.0859L100.133 34.659L99.9551 35.188L99.7332 35.717L99.5113 36.29L99.2894 36.819L99.0231 37.348L98.7569 37.877L98.4906 38.3619L98.2243 38.8468L97.9136 39.3317L97.603 39.8165L97.2923 40.3455L96.9373 40.8304L96.5822 41.3153L96.2272 41.7561L95.8722 42.197L95.5171 42.6378L95.1621 43.0786L94.7627 43.4753L94.3632 43.8721L88.6826 38.2296L88.9489 37.921L89.2152 37.6565L89.4815 37.3921L89.7477 37.0835L89.9696 36.7749L90.1915 36.5104L90.4134 36.1578L90.6353 35.8492L90.8572 35.5406L91.0791 35.188L91.2567 34.8353L91.4342 34.4827L91.6117 34.13L91.7892 33.7774L91.9667 33.5129L92.1443 33.1602L92.2774 32.8076L92.4105 32.4549L92.5437 32.1023L92.6768 31.7496L92.7656 31.397L92.8543 30.9561L92.9431 30.5594L93.0318 30.1627L93.1206 29.7659L93.2094 29.3692L93.2537 28.9725L93.2981 28.5757V28.2231L93.3425 27.8263V27.4296V27.0329V26.6361V26.2394L93.2981 25.7986L93.2537 25.4019L93.2094 25.0051L93.165 24.6084L93.0762 24.2117L93.0318 23.8149L92.9431 23.4182L92.8543 23.0214L92.7656 22.6247L92.6768 22.2721L92.5437 21.9194L92.4105 21.5668L92.2774 21.17L92.1443 20.8174L91.9667 20.4647L91.7892 20.1121L91.6117 19.7594L91.4342 19.4068L91.2567 19.0541L91.0791 18.7014L90.8572 18.3488L90.6353 18.1284L90.4134 17.8198L90.1915 17.5112L89.9696 17.2027L89.7477 16.8941L89.4815 16.5855L89.2152 16.321L88.9489 16.0565L88.6826 15.7921L94.3632 10.1496Z" fill="#CE2730"/>
<path d="M3.62304 29.0547V25.0433C3.62304 24.5143 3.66742 24.0735 3.75618 23.7209C3.84494 23.3682 4.02246 23.1037 4.19998 22.8833C4.42188 22.6629 4.73254 22.5307 5.08758 22.4425C5.44262 22.3543 5.9308 22.3102 6.50774 22.3102H11.1676C11.7002 22.3102 12.144 22.3543 12.5434 22.4425C12.8984 22.5307 13.2091 22.6629 13.431 22.8392C13.6529 23.0156 13.8304 23.3241 13.9192 23.6768C14.0079 24.0294 14.0523 24.4702 14.0523 24.9992V29.0107C14.0523 29.4956 14.0079 29.9364 13.9192 30.2449C13.8304 30.5535 13.6973 30.818 13.4754 31.0384C13.2535 31.2147 12.9872 31.347 12.5878 31.4351C12.2771 31.5233 11.7889 31.5674 11.212 31.5674H6.41898C5.7089 31.5674 5.13196 31.5233 4.68816 31.347C4.28874 31.2147 3.97808 30.9502 3.80056 30.5976C3.66742 30.2009 3.62304 29.716 3.62304 29.0547ZM17.6471 29.4074V24.6907C17.6471 23.6327 17.5583 22.7511 17.3364 22.0898C17.1145 21.3845 16.8039 20.8556 16.3157 20.4588C15.8719 20.0621 15.295 19.7976 14.6293 19.6213C13.9192 19.4449 13.1203 19.3568 12.1884 19.4009H5.57576C4.55502 19.4009 3.66742 19.489 2.95734 19.6653C2.24726 19.8417 1.67032 20.1502 1.22652 20.547C0.782725 20.9437 0.472066 21.5168 0.294546 22.178C0.117027 22.8833 -0.0161133 23.7209 -0.0161133 24.7347V29.4074C-0.0161133 30.3331 0.0726466 31.0825 0.294546 31.7437C0.516446 32.4049 0.827105 32.9339 1.2709 33.3307C1.7147 33.7274 2.29164 34.036 3.00172 34.2564C3.7118 34.4327 4.55502 34.5209 5.57576 34.5209H12.1884C13.2535 34.5209 14.0967 34.4327 14.8068 34.2564C15.5169 34.08 16.0494 33.7715 16.4932 33.3747C16.8926 32.978 17.2033 32.449 17.3808 31.7878C17.5583 31.1266 17.6471 30.3772 17.6471 29.4074ZM25.3248 19.5772H21.73V34.5649H25.3248V28.1731H27.4994L34.5115 34.5209H39.7927L30.5617 26.5862L39.4376 19.5772H34.0233L27.4551 25.1315H25.3248V19.5772ZM41.9229 19.5772V34.5649H45.5177V22.5747H46.0059L55.0594 34.5649H61.2726V19.5772H57.6778V31.5674H57.1896L48.003 19.5772H41.9229ZM68.7728 29.0547V25.0433C68.7728 24.5143 68.8171 24.0735 68.9059 23.7209C68.9947 23.3682 69.1722 23.1037 69.3497 22.8833C69.5716 22.6629 69.8823 22.5307 70.2373 22.4425C70.5923 22.3543 71.0805 22.3102 71.6575 22.3102H76.3174C76.8499 22.3102 77.2937 22.3543 77.6931 22.4425C78.0482 22.5307 78.3588 22.6629 78.5807 22.8392C78.8026 23.0156 78.9801 23.3241 79.0689 23.6768C79.1577 24.0294 79.202 24.4702 79.202 24.9992V29.0107C79.202 29.4956 79.1577 29.9364 79.0689 30.2449C78.9801 30.5535 78.847 30.818 78.6251 31.0384C78.4032 31.2147 78.1369 31.347 77.7375 31.4351C77.3825 31.5233 76.8943 31.5674 76.3174 31.5233H71.6131C70.903 31.5233 70.3261 31.4792 69.8823 31.3029C69.4828 31.1707 69.1722 30.9062 68.9947 30.5535C68.8615 30.2009 68.7728 29.716 68.7728 29.0547ZM82.8412 29.4074V24.6907C82.8412 23.6327 82.7524 22.7511 82.5305 22.0898C82.3086 21.3845 81.998 20.8556 81.5098 20.4588C81.066 20.0621 80.4891 19.7976 79.8234 19.6213C79.1133 19.4449 78.3144 19.3568 77.3825 19.4009H70.7699C69.7491 19.4009 68.8615 19.489 68.1514 19.6653C67.4414 19.8417 66.8644 20.1502 66.4206 20.547C65.9768 20.9437 65.6662 21.5168 65.4886 22.178C65.3111 22.8833 65.178 23.7209 65.178 24.7347V29.4074C65.178 30.3331 65.2667 31.0825 65.4886 31.7437C65.7105 32.4049 66.0212 32.9339 66.465 33.3307C66.9088 33.7274 67.4857 34.036 68.1958 34.2564C68.9059 34.4327 69.7491 34.5649 70.7699 34.5649H77.3825C78.4476 34.5649 79.2908 34.4768 80.0009 34.3005C80.711 34.1241 81.2435 33.8156 81.6873 33.4188C82.0867 33.0221 82.3974 32.4931 82.5749 31.8319C82.7524 31.1707 82.8412 30.3772 82.8412 29.4074ZM199.96 29.0547V25.0433C199.96 24.5143 200.004 24.0735 200.093 23.7209C200.182 23.3682 200.359 23.1037 200.537 22.8833C200.759 22.6629 201.069 22.5307 201.424 22.4425C201.779 22.3543 202.268 22.3102 202.845 22.3102H207.504C208.037 22.3102 208.481 22.3543 208.88 22.4425C209.235 22.5307 209.546 22.6629 209.768 22.8392C209.99 23.0156 210.167 23.3241 210.256 23.6768C210.345 24.0294 210.389 24.4702 210.389 24.9992V29.0107C210.389 29.4956 210.345 29.9364 210.256 30.2449C210.167 30.5535 210.034 30.818 209.812 31.0384C209.59 31.2147 209.324 31.347 208.925 31.4351C208.57 31.5233 208.081 31.5674 207.504 31.5233H202.711C202.001 31.5233 201.424 31.4792 200.981 31.3029C200.581 31.1707 200.27 30.9062 200.093 30.5535C200.049 30.2009 199.96 29.716 199.96 29.0547ZM214.028 29.4074V24.6907C214.028 23.6327 213.939 22.7511 213.718 22.0898C213.496 21.3845 213.185 20.8556 212.697 20.4588C212.253 20.0621 211.676 19.7976 211.01 19.6213C210.3 19.4449 209.501 19.3568 208.57 19.4009H201.957C200.936 19.4009 200.049 19.489 199.338 19.6653C198.628 19.8417 198.051 20.1502 197.608 20.547C197.164 20.9437 196.853 21.5168 196.676 22.178C196.498 22.8833 196.365 23.7209 196.365 24.7347V29.4074C196.365 30.3331 196.454 31.0825 196.676 31.7437C196.898 32.4049 197.208 32.9339 197.652 33.3307C198.096 33.7274 198.673 34.036 199.383 34.2564C200.093 34.4327 200.936 34.5649 201.957 34.5649H208.57C209.635 34.5649 210.478 34.4768 211.188 34.3005C211.898 34.1241 212.431 33.8156 212.874 33.4188C213.274 33.0221 213.584 32.4931 213.762 31.8319C213.939 31.1707 214.028 30.3772 214.028 29.4074ZM192.149 19.5772H188.554V34.5649H192.149V19.5772ZM170.225 31.5674V22.5307H176.705C177.37 22.5307 177.903 22.5747 178.347 22.707C178.791 22.7951 179.101 22.9715 179.368 23.1919C179.589 23.4123 179.767 23.6768 179.9 23.9853C179.989 24.2939 180.033 24.6907 180.033 25.0874V29.0107C180.033 29.4515 179.989 29.8482 179.9 30.1568C179.811 30.4653 179.634 30.7298 179.412 30.9502C179.19 31.1707 178.835 31.3029 178.391 31.3911C177.947 31.4792 177.415 31.5233 176.749 31.5233H170.225V31.5674ZM166.63 19.5772V34.5649H178.302C179.279 34.5649 180.078 34.4768 180.788 34.2564C181.453 34.036 182.03 33.7274 182.43 33.2425C182.829 32.7576 183.14 32.2286 183.362 31.5233C183.539 30.818 183.672 29.9805 183.628 29.0107V25.0433C183.628 23.7209 183.45 22.6629 183.051 21.8694C182.652 21.076 182.075 20.5029 181.276 20.1062C180.477 19.7535 179.456 19.5772 178.258 19.5772H166.63ZM144.396 19.5772V29.2311C144.396 31.0384 144.84 32.4049 145.772 33.2425C146.704 34.1241 148.08 34.5649 149.988 34.5649H156.601C157.577 34.5649 158.42 34.4768 159.086 34.3005C159.752 34.1241 160.329 33.8156 160.772 33.3747C161.216 32.978 161.527 32.4049 161.704 31.7437C161.882 31.0384 162.015 30.2449 162.015 29.2311V19.5772H158.42V28.8343C158.42 29.4956 158.331 30.0686 158.154 30.4653C157.976 30.8621 157.666 31.1707 157.266 31.3029C156.867 31.4792 156.379 31.5674 155.802 31.5674H150.831C150.166 31.5674 149.677 31.4792 149.234 31.347C148.834 31.1707 148.523 30.9062 148.302 30.5094C148.124 30.1127 147.991 29.5837 147.991 28.8784V19.5772H144.396ZM125.49 34.5209L127.443 30.7298H136.408L138.36 34.5209H142.621L134.677 19.5331H129.351L121.363 34.5209H125.49ZM128.908 27.9527L131.881 22.3984H132.059L134.943 27.9527H128.908Z" fill="white"/>
</g>
<defs>
<clipPath id="clip0_56_887">
<rect width="214" height="54" fill="white"/>
</clipPath>
</defs>
</svg>
